<?xml version="1.0" standalone="no"?>
<!DOCTYPE svg PUBLIC "-//W3C//DTD SVG 20010904//EN"
 "http://www.w3.org/TR/2001/REC-SVG-20010904/DTD/svg10.dtd">
<svg version="1.0" xmlns="http://www.w3.org/2000/svg"
 width="512.000000pt" height="512.000000pt" viewBox="0 0 512.000000 512.000000"
 preserveAspectRatio="xMidYMid meet">
<metadata>
Created by potrace 1.14, written by Peter Selinger 2001-2017
</metadata>
<g transform="translate(0.000000,512.000000) scale(0.100000,-0.100000)"
fill="#000000" stroke="none">
<path d="M2418 4655 c-2 -2 -28 -5 -58 -8 -156 -16 -172 -18 -182 -32 -5 -6
-8 -6 -8 2 0 8 -8 9 -32 1 -18 -6 -40 -13 -48 -16 -8 -3 -22 -6 -30 -7 -49 -7
-248 -70 -289 -91 -14 -8 -32 -14 -39 -14 -7 0 -11 -3 -9 -7 3 -5 -6 -9 -20
-9 -13 -1 -33 -10 -43 -19 -10 -9 -24 -18 -32 -19 -30 -6 -87 -40 -81 -49 3
-6 1 -7 -5 -3 -10 6 -54 -15 -72 -34 -3 -3 -22 -14 -44 -25 -21 -11 -41 -25
-43 -32 -3 -7 -9 -10 -14 -7 -5 3 -9 0 -9 -5 0 -6 -7 -11 -16 -11 -9 0 -18 -9
-21 -20 -3 -11 -9 -17 -14 -14 -5 3 -15 -1 -23 -8 -7 -7 -30 -26 -51 -43 -70
-54 -144 -128 -139 -137 3 -5 2 -7 -3 -6 -10 3 -53 -24 -53 -34 0 -3 -18 -25
-40 -47 -22 -22 -39 -46 -38 -53 2 -7 -2 -12 -9 -13 -17 0 -104 -115 -96 -128
3 -5 1 -7 -5 -4 -9 6 -48 -47 -87 -118 -6 -11 -24 -41 -39 -67 -15 -27 -25
-48 -22 -48 4 0 -1 -9 -11 -19 -15 -16 -96 -196 -99 -219 0 -4 -6 -19 -12 -33
-6 -15 -12 -35 -14 -45 -2 -11 -6 -21 -10 -25 -4 -3 -9 -18 -11 -35 -2 -16 -6
-35 -10 -40 -3 -6 -9 -26 -12 -44 -3 -18 -8 -36 -10 -40 -3 -4 -7 -25 -10 -46
-4 -22 -8 -50 -10 -62 -2 -13 -6 -26 -9 -29 -3 -4 0 -13 7 -21 10 -13 9 -14
-2 -7 -11 6 -13 2 -9 -19 3 -14 1 -26 -5 -26 -5 0 -5 -5 2 -13 6 -8 7 -17 2
-23 -17 -17 -18 -108 -2 -120 11 -9 12 -12 1 -19 -9 -5 -11 -4 -6 3 4 7 2 12
-3 12 -13 0 -4 -337 9 -370 1 -3 2 -8 1 -12 -4 -35 66 -331 81 -336 4 -2 6 -7
3 -12 -6 -10 44 -153 57 -161 5 -3 9 -9 9 -13 -4 -25 0 -36 11 -30 6 4 8 3 5
-4 -9 -14 3 -43 14 -36 5 3 6 -2 3 -10 -3 -8 6 -33 20 -55 15 -23 23 -41 20
-41 -4 0 -1 -8 8 -17 8 -10 25 -39 39 -65 13 -27 27 -48 31 -48 5 0 8 -7 8
-15 0 -9 7 -18 15 -21 8 -4 13 -9 10 -13 -2 -4 9 -22 25 -39 16 -18 27 -32 24
-32 -3 0 15 -27 41 -60 90 -117 258 -286 281 -284 8 1 11 -2 9 -6 -6 -10 74
-76 87 -72 5 1 7 -1 4 -6 -8 -13 101 -85 115 -76 7 4 9 3 5 -4 -7 -11 32 -44
45 -37 4 3 10 -2 13 -11 3 -8 10 -12 16 -9 5 3 10 2 10 -4 0 -6 13 -17 30 -26
16 -9 30 -13 30 -10 0 2 9 -3 20 -13 12 -9 22 -15 24 -12 2 3 13 -3 24 -13 11
-10 26 -20 34 -21 7 -1 40 -15 73 -30 33 -16 65 -29 70 -31 11 -2 38 -12 70
-25 11 -4 34 -13 50 -19 38 -14 240 -62 280 -67 17 -2 44 -6 60 -9 159 -27
444 -27 625 1 31 4 37 1 52 -23 95 -161 316 -190 448 -60 55 53 82 114 89 200
l6 69 84 44 c46 24 92 51 101 59 9 8 20 15 23 15 9 0 136 89 156 108 8 7 24
20 37 29 13 8 24 23 25 32 0 10 2 11 6 4 3 -8 25 7 58 40 29 28 63 59 74 67
12 8 19 21 16 30 -3 8 -3 11 1 7 4 -4 13 -2 21 4 11 10 11 15 1 28 -11 14 -11
14 3 3 13 -10 19 -10 29 2 6 9 8 21 4 27 -5 8 -3 9 6 4 14 -9 17 -5 108 115
31 41 56 78 54 83 -1 4 2 7 7 7 22 0 197 322 186 341 -4 5 -2 9 3 9 13 0 33
50 26 62 -4 6 -2 8 4 4 9 -5 27 41 22 60 -1 4 2 10 7 13 14 9 55 160 47 173
-4 6 -3 8 3 5 6 -4 15 23 23 66 8 40 15 79 17 87 1 8 4 31 6 51 2 20 7 41 11
48 4 6 1 11 -6 11 -9 0 -9 3 -2 8 13 9 16 50 17 265 1 137 -2 170 -13 177 -10
7 -11 10 -2 10 6 0 12 9 12 20 0 11 -3 20 -7 20 -7 0 -11 31 -13 95 -1 39 -63
280 -74 287 -6 4 -8 8 -4 8 11 0 -43 150 -53 150 -6 0 -8 4 -5 9 7 11 -70 168
-139 286 -45 76 -142 212 -179 251 -6 6 -24 28 -40 48 -15 20 -33 33 -39 29
-5 -3 -7 -2 -4 4 8 13 -47 66 -58 56 -4 -5 -5 -3 -2 3 4 6 -1 18 -11 27 -75
72 -186 167 -195 167 -3 0 -21 14 -39 30 -18 17 -39 28 -46 25 -7 -3 -10 -1
-7 5 7 11 -29 32 -40 22 -5 -4 -5 -2 -2 4 7 12 -19 27 -188 114 -116 60 -218
103 -241 103 -8 0 -14 4 -14 7 0 4 -15 11 -32 15 -18 4 -40 10 -48 12 -8 3
-27 6 -42 7 -14 0 -24 4 -21 9 3 5 -16 10 -29 6 -2 0 -16 4 -31 10 -15 6 -42
14 -60 17 -89 16 -133 21 -139 17 -5 -2 -14 -1 -20 4 -21 12 -38 12 -38 0 0
-7 -4 -6 -9 2 -8 12 -45 15 -185 17 -96 1 -176 0 -178 -1z m14 -80 c10 10 355
3 388 -8 8 -3 36 -8 62 -12 26 -3 93 -17 149 -31 55 -13 106 -21 112 -17 7 3
9 2 4 -2 -7 -8 44 -30 90 -39 13 -3 28 -8 35 -13 7 -4 15 -8 18 -9 9 -2 45
-17 110 -47 36 -16 71 -30 78 -30 6 0 12 -3 12 -7 0 -4 21 -18 48 -31 26 -13
49 -27 50 -31 2 -5 8 -8 12 -8 5 0 38 -20 74 -45 35 -25 70 -44 77 -43 7 2 13
-2 14 -9 0 -6 23 -29 50 -50 28 -21 60 -48 73 -61 12 -13 27 -20 34 -16 6 4 8
3 5 -3 -8 -13 27 -46 38 -36 4 5 5 3 2 -3 -4 -6 14 -30 38 -52 25 -22 45 -46
45 -51 0 -10 14 -15 33 -12 5 1 5 -3 2 -9 -9 -14 24 -52 38 -43 5 3 7 2 4 -4
-3 -5 2 -21 13 -34 46 -59 88 -118 119 -166 19 -29 38 -50 44 -46 6 3 7 1 3
-5 -6 -10 45 -117 63 -132 3 -3 7 -13 9 -23 5 -28 38 -78 46 -70 4 4 4 0 1 -8
-3 -9 9 -56 28 -105 19 -49 38 -102 43 -119 4 -16 8 -32 9 -35 19 -72 47 -201
47 -217 0 -13 3 -21 7 -19 3 2 6 -8 7 -22 0 -15 3 -65 8 -112 8 -92 9 -270 2
-277 -3 -3 -1 -15 4 -28 5 -13 6 -26 2 -29 -7 -8 -9 -18 -17 -105 -4 -36 -8
-68 -10 -71 -4 -6 -16 -81 -19 -120 -2 -14 -8 -34 -14 -46 -6 -11 -13 -31 -15
-45 -2 -13 -7 -31 -10 -39 -3 -8 -15 -43 -27 -78 -11 -34 -39 -104 -61 -155
-23 -51 -42 -100 -42 -109 -1 -9 -3 -15 -6 -12 -8 8 -52 -76 -45 -88 4 -7 3
-8 -4 -4 -13 8 -36 -30 -27 -44 4 -6 2 -9 -3 -8 -16 5 -82 -99 -76 -119 4 -13
3 -14 -3 -5 -8 10 -17 4 -39 -25 -15 -21 -34 -44 -41 -51 -7 -8 -11 -18 -7
-23 3 -5 1 -8 -4 -7 -14 4 -53 -43 -45 -55 3 -5 2 -7 -4 -4 -13 8 -66 -47 -56
-57 5 -4 3 -6 -2 -4 -18 5 -94 -72 -88 -90 4 -15 3 -15 -6 -2 -9 13 -15 10
-40 -17 -16 -18 -34 -33 -38 -33 -12 0 -48 -43 -45 -53 1 -5 -2 -6 -8 -2 -8 5
-122 -63 -140 -84 -3 -3 -14 -11 -25 -17 -11 -6 -54 -30 -96 -52 l-75 -42 -31
41 c-43 56 -88 87 -152 105 -178 52 -351 -68 -368 -256 -4 -41 -10 -61 -21
-65 -20 -7 -117 -19 -154 -18 -15 0 -26 -2 -24 -6 4 -6 -34 -6 -199 0 -50 2
-97 -1 -104 -5 -9 -6 -12 -5 -8 1 9 14 -70 22 -85 8 -8 -7 -9 -6 -4 3 5 8 0
12 -16 13 -13 0 -32 2 -43 5 -11 2 -36 6 -55 8 -19 2 -44 7 -54 12 -11 4 -34
8 -52 8 -18 1 -30 4 -27 9 2 4 -5 8 -16 8 -22 2 -27 3 -51 11 -129 46 -206 76
-258 100 -35 16 -69 30 -75 31 -7 1 -14 4 -17 8 -16 17 -81 49 -90 44 -6 -4
-9 -3 -8 2 2 4 -1 9 -6 10 -5 1 -12 6 -15 11 -3 5 -40 31 -81 58 -41 26 -81
54 -88 61 -8 7 -18 10 -24 7 -6 -4 -8 -2 -5 3 8 13 -82 85 -96 76 -6 -4 -7 -1
-3 6 9 14 -24 42 -39 34 -5 -4 -7 -2 -2 2 9 11 -52 75 -71 75 -7 0 -11 4 -8 8
2 4 -14 28 -37 53 -23 24 -62 70 -86 102 -24 31 -47 57 -52 57 -5 0 -8 3 -7 8
4 10 -64 112 -74 112 -5 0 -7 4 -4 8 3 5 -4 21 -15 38 -75 109 -207 438 -225
559 -2 17 -6 36 -9 44 -6 16 -18 79 -18 99 0 6 -3 12 -6 12 -3 0 -7 25 -8 56
-1 31 -6 61 -12 68 -5 6 -6 17 -2 25 5 7 6 25 4 39 -6 36 -4 201 3 287 3 39 7
90 9 115 1 25 6 53 10 62 4 10 8 32 9 50 0 18 4 35 8 38 4 3 9 21 12 40 2 19
12 55 20 79 9 24 13 47 10 52 -3 5 -1 9 3 9 7 0 27 53 39 100 1 8 33 79 64
147 15 34 26 64 22 67 -3 3 0 6 7 6 15 0 44 67 35 82 -4 7 -3 8 4 4 7 -4 21 9
35 31 13 21 35 56 49 78 14 22 25 44 26 48 0 5 9 16 19 25 10 9 36 40 58 67
22 28 69 81 105 118 36 38 64 73 63 78 -2 5 1 8 6 6 5 -1 28 16 52 39 24 22
56 48 72 58 23 16 25 21 15 35 -11 14 -11 14 3 3 14 -10 21 -8 48 17 17 16 31
27 31 25 0 -2 36 21 80 50 69 47 250 147 273 152 4 1 12 2 18 3 5 0 7 6 3 13
-4 6 -3 8 4 4 10 -6 90 20 102 33 3 3 10 6 15 7 35 3 74 18 68 27 -3 6 -1 7 5
3 16 -10 63 4 55 17 -3 6 -1 7 5 3 7 -4 62 4 124 18 109 24 205 39 240 38 10
0 20 4 24 9 4 7 10 6 18 0 7 -6 15 -9 18 -6z m895 -90 c0 -8 -4 -12 -9 -9 -5
3 -6 10 -3 15 9 13 12 11 12 -6z m-2237 -481 c0 -8 -19 -13 -24 -6 -3 5 1 9 9
9 8 0 15 -2 15 -3z m-443 -2159 c0 -8 -4 -15 -9 -15 -10 0 -11 14 -1 23 9 10
10 9 10 -8z m287 -523 c3 -5 -1 -9 -9 -9 -8 0 -12 4 -9 9 3 4 7 8 9 8 2 0 6
-4 9 -8z"/>
<path d="M2395 3899 c-116 -15 -248 -50 -335 -88 -19 -8 -37 -15 -40 -16 -28
-8 -60 -26 -60 -34 0 -6 -6 -8 -14 -5 -8 3 -24 -4 -35 -15 -12 -12 -23 -20
-25 -18 -5 3 -140 -84 -147 -96 -4 -6 -25 -5 -59 3 -96 23 -177 -6 -226 -80
-34 -50 -42 -131 -20 -185 16 -37 16 -40 -2 -65 -11 -14 -22 -35 -26 -47 -4
-12 -13 -27 -21 -33 -8 -7 -15 -21 -15 -31 0 -11 -4 -19 -9 -19 -5 0 -13 -12
-19 -27 -6 -16 -14 -37 -18 -48 -4 -11 -6 -23 -6 -27 1 -5 -3 -8 -9 -8 -6 0
-9 -9 -6 -20 3 -11 2 -18 -3 -15 -10 6 -23 -43 -14 -57 5 -7 2 -8 -6 -3 -10 6
-12 4 -7 -8 4 -10 2 -17 -4 -17 -6 0 -9 -9 -6 -20 3 -11 1 -18 -4 -14 -8 4
-13 -15 -11 -37 1 -4 -3 -21 -8 -39 -24 -82 -33 -346 -16 -450 24 -150 44
-230 56 -230 4 0 7 -7 7 -15 0 -23 25 -95 32 -91 3 2 7 -7 8 -21 0 -14 5 -28
10 -32 4 -3 9 -13 11 -21 6 -29 66 -119 75 -113 6 3 7 1 3 -5 -9 -15 23 -66
76 -123 14 -16 25 -29 22 -29 -2 0 8 -14 23 -31 83 -93 151 -152 165 -143 7 4
8 2 4 -4 -4 -6 6 -19 21 -29 15 -10 30 -20 33 -23 21 -25 230 -146 230 -134 0
4 7 0 16 -7 22 -18 83 -41 116 -42 14 -1 24 -5 21 -9 -4 -7 3 -9 47 -13 8 0
21 -4 27 -8 7 -4 25 -10 40 -12 16 -3 51 -10 78 -16 54 -12 355 -21 355 -10 0
3 15 6 33 7 47 2 130 15 147 24 8 4 32 10 53 14 20 4 37 11 37 17 0 6 4 8 9 4
19 -11 269 102 279 127 2 4 8 8 13 8 23 0 130 82 125 95 -3 9 0 12 10 8 16 -6
164 133 164 155 0 7 4 11 8 8 4 -2 17 9 27 25 11 16 23 29 28 29 4 0 7 5 7 11
0 5 -5 7 -12 3 -7 -4 -8 -3 -4 5 4 6 12 9 17 6 5 -4 12 2 16 11 4 10 16 29 27
42 34 38 117 205 111 221 -3 9 -3 12 1 8 9 -9 47 81 39 93 -3 5 -2 10 2 12 13
5 40 101 39 135 -1 17 3 29 8 26 5 -3 7 10 4 30 -2 20 0 33 4 30 5 -2 9 10 9
29 -1 18 2 80 5 137 5 85 3 102 -8 95 -9 -5 -9 -2 2 11 10 13 11 19 4 22 -7 2
-10 12 -8 21 4 15 -4 80 -21 172 -27 145 -182 478 -210 452 -5 -4 -5 -2 -2 4
9 16 -61 106 -75 98 -7 -5 -8 -2 -4 5 9 14 -73 103 -86 95 -5 -3 -7 -1 -6 4 4
11 -76 92 -91 92 -6 0 -11 4 -11 9 0 4 -18 20 -40 35 -22 14 -40 24 -40 22 0
-3 -12 6 -27 20 -14 13 -37 27 -50 30 -13 4 -23 11 -23 16 0 6 -9 8 -20 5 -11
-3 -18 -1 -15 3 8 13 -33 32 -48 24 -6 -4 -8 -3 -4 1 9 11 -130 68 -144 60 -5
-4 -9 -2 -9 3 0 8 -108 39 -165 48 -123 18 -145 20 -145 10 0 -7 -3 -7 -8 1
-8 13 -159 14 -257 2z m351 -81 c4 -5 18 -8 31 -8 16 0 22 -4 17 -12 -5 -10
-4 -10 5 -2 9 9 24 8 57 -2 24 -7 45 -13 47 -13 6 1 63 -14 72 -20 26 -15 111
-39 120 -34 5 4 7 3 3 -2 -10 -11 29 -38 42 -30 6 3 10 -1 10 -9 0 -9 9 -16
20 -16 11 0 20 -5 20 -12 0 -6 3 -9 6 -6 11 11 154 -91 217 -154 15 -15 31
-28 36 -28 5 0 12 -7 15 -16 3 -8 11 -12 17 -8 7 4 9 3 6 -2 -3 -5 10 -27 29
-49 19 -22 34 -43 34 -48 0 -4 5 -5 10 -2 6 3 10 0 10 -8 0 -7 9 -23 20 -35
28 -29 52 -71 109 -187 51 -104 66 -142 70 -176 0 -5 5 -8 9 -5 5 3 8 -5 7
-17 -1 -12 2 -33 7 -47 5 -14 11 -39 12 -56 2 -16 7 -41 11 -54 9 -29 14 -94
14 -205 1 -120 -11 -207 -46 -340 -3 -11 -6 -28 -6 -37 -1 -10 -5 -18 -8 -18
-4 0 -11 -10 -14 -22 -12 -41 -58 -153 -70 -168 -7 -8 -18 -30 -26 -48 -8 -17
-17 -32 -21 -32 -5 0 -8 -7 -8 -15 0 -8 -4 -15 -10 -15 -5 0 -10 -7 -10 -15 0
-9 -7 -18 -15 -21 -8 -4 -15 -12 -15 -20 0 -17 -211 -234 -228 -234 -6 0 -12
-4 -12 -8 0 -4 -14 -16 -30 -26 -17 -9 -27 -22 -24 -28 4 -6 3 -8 -3 -5 -13 8
-65 -27 -56 -38 5 -4 3 -5 -4 -1 -10 5 -77 -26 -93 -44 -3 -3 -9 -5 -15 -6 -5
0 -28 -9 -50 -19 -22 -10 -44 -20 -50 -21 -5 -1 -36 -12 -69 -24 -32 -11 -71
-22 -87 -23 -16 -1 -29 -6 -29 -11 0 -5 -2 -7 -6 -4 -3 3 -22 1 -42 -4 -20 -5
-107 -11 -192 -13 -144 -3 -194 2 -335 32 -16 3 -38 6 -47 7 -10 0 -18 4 -18
9 0 5 -7 7 -15 3 -8 -3 -15 -1 -15 5 0 6 -4 7 -10 4 -5 -3 -10 -1 -10 4 0 6
-8 11 -18 11 -10 0 -22 3 -26 7 -6 7 -29 13 -53 15 -7 1 -13 5 -13 8 0 4 -15
13 -32 21 -18 7 -35 15 -38 18 -3 3 -15 12 -27 19 -13 6 -33 18 -45 25 -13 6
-25 14 -28 17 -3 3 -27 21 -55 40 -27 19 -60 45 -73 57 -13 13 -28 20 -34 17
-6 -4 -8 -2 -4 4 3 6 -5 20 -20 31 -15 12 -23 25 -18 32 4 7 3 9 -4 5 -6 -3
-19 5 -30 19 -11 14 -26 25 -33 25 -7 0 -10 3 -6 6 3 3 1 11 -4 18 -23 28 -45
56 -56 73 -51 76 -63 95 -63 100 0 4 -6 14 -13 22 -8 9 -24 42 -37 73 -12 32
-25 56 -29 54 -3 -2 -7 10 -8 26 -1 17 -6 35 -11 42 -8 10 -26 70 -38 126 -3
14 -7 32 -9 40 -2 8 -4 21 -4 28 -1 8 -6 10 -13 6 -10 -5 -10 -4 -2 5 7 7 8
29 3 59 -4 26 -6 99 -5 164 0 75 -3 114 -9 110 -5 -3 -5 1 1 9 6 8 15 37 18
64 4 28 14 74 23 104 15 51 21 77 22 94 1 5 5 6 9 3 4 -2 8 4 8 15 0 10 -4 19
-8 19 -4 0 0 9 10 20 9 12 17 24 18 28 0 4 8 24 18 45 9 21 14 43 10 49 -4 6
-3 8 2 5 6 -3 21 15 34 41 14 26 30 53 36 59 7 7 14 17 16 22 2 6 26 2 57 -8
47 -17 59 -17 109 -6 31 8 58 18 60 24 2 6 9 11 15 11 7 0 18 9 25 20 7 12 18
18 24 14 7 -4 8 -3 4 5 -4 6 -2 19 6 28 8 10 13 44 13 93 0 63 -4 82 -20 100
-13 14 -16 24 -8 28 6 4 25 18 43 32 18 14 33 23 34 20 0 -2 11 5 24 15 12 11
25 19 28 17 2 -1 11 3 19 10 32 29 45 38 45 33 0 -3 18 4 40 15 21 11 46 20
55 20 9 0 18 6 21 14 3 8 11 13 18 10 7 -3 26 1 42 7 16 7 32 12 37 11 4 -1 7
2 7 6 0 4 9 9 20 10 42 4 50 6 50 11 0 3 12 7 28 7 50 3 82 8 82 14 0 9 357 6
366 -2z m-616 -12 c0 -3 -4 -8 -10 -11 -5 -3 -10 -1 -10 4 0 6 5 11 10 11 6 0
10 -2 10 -4z m-765 -1775 c3 -5 2 -12 -3 -15 -5 -3 -9 1 -9 9 0 17 3 19 12 6z"/>
<path d="M2516 3638 c3 -5 10 -6 15 -3 13 9 11 12 -6 12 -8 0 -12 -4 -9 -9z"/>
<path d="M2375 3600 c3 -5 8 -10 11 -10 2 0 4 5 4 10 0 6 -5 10 -11 10 -5 0
-7 -4 -4 -10z"/>
<path d="M2459 3593 c-13 -17 -13 -17 6 -3 11 8 22 16 24 17 2 2 0 3 -6 3 -6
0 -17 -8 -24 -17z"/>
<path d="M2820 3606 c0 -2 8 -10 18 -17 15 -13 16 -12 3 4 -13 16 -21 21 -21
13z"/>
<path d="M2515 3563 c0 -15 7 -28 15 -31 10 -2 11 -1 4 5 -6 4 -10 16 -8 25 1
10 -1 20 -5 23 -4 2 -7 -8 -6 -22z"/>
<path d="M2593 3583 c4 -3 1 -13 -6 -22 -11 -14 -10 -14 5 -2 16 12 16 31 1
31 -4 0 -3 -3 0 -7z"/>
<path d="M2893 3569 c-2 -23 3 -25 10 -4 4 8 3 16 -1 19 -4 3 -9 -4 -9 -15z"/>
<path d="M2376 3567 c3 -10 9 -15 12 -12 3 3 0 11 -7 18 -10 9 -11 8 -5 -6z"/>
<path d="M3075 3571 c-3 -5 -2 -12 3 -15 5 -3 9 1 9 9 0 17 -3 19 -12 6z"/>
<path d="M2276 3561 c-3 -5 2 -15 12 -22 15 -12 16 -12 5 2 -7 9 -10 19 -6 22
3 4 4 7 0 7 -3 0 -8 -4 -11 -9z"/>
<path d="M2353 3553 c0 -11 7 -20 14 -20 10 0 10 4 1 16 -7 9 -13 18 -15 20
-1 2 -1 -5 0 -16z"/>
<path d="M2456 3562 c-3 -5 1 -9 9 -9 8 0 12 4 9 9 -3 4 -7 8 -9 8 -2 0 -6 -4
-9 -8z"/>
<path d="M2673 3556 c-3 -6 -3 -8 2 -4 4 4 13 3 20 -2 8 -7 12 -5 12 3 0 16
-25 18 -34 3z"/>
<path d="M2736 3558 c3 -5 10 -6 15 -3 13 9 11 12 -6 12 -8 0 -12 -4 -9 -9z"/>
<path d="M2826 3562 c-3 -5 1 -9 9 -9 8 0 12 4 9 9 -3 4 -7 8 -9 8 -2 0 -6 -4
-9 -8z"/>
<path d="M2316 3542 c-3 -5 1 -9 9 -9 8 0 12 4 9 9 -3 4 -7 8 -9 8 -2 0 -6 -4
-9 -8z"/>
<path d="M2763 3538 c-9 -16 -16 -54 -7 -46 3 3 6 12 8 20 1 7 5 19 9 26 5 6
6 12 3 12 -3 0 -8 -6 -13 -12z"/>
<path d="M2460 3536 c0 -2 7 -7 16 -10 8 -3 12 -2 9 4 -6 10 -25 14 -25 6z"/>
<path d="M2617 3519 c6 -23 9 -24 16 -5 3 8 0 17 -7 19 -10 4 -12 -1 -9 -14z"/>
<path d="M2815 3529 c-4 -6 -5 -12 -2 -15 2 -3 7 2 10 11 7 17 1 20 -8 4z"/>
<path d="M2270 3520 c0 -5 5 -10 11 -10 5 0 7 5 4 10 -3 6 -8 10 -11 10 -2 0
-4 -4 -4 -10z"/>
<path d="M2380 3520 c-8 -5 -10 -10 -5 -10 6 0 17 5 25 10 8 5 11 10 5 10 -5
0 -17 -5 -25 -10z"/>
<path d="M2507 3519 c7 -7 15 -10 18 -7 3 3 -2 9 -12 12 -14 6 -15 5 -6 -5z"/>
<path d="M2711 3514 c0 -11 3 -14 6 -6 3 7 2 16 -1 19 -3 4 -6 -2 -5 -13z"/>
<path d="M2831 3512 c-7 -14 -6 -19 4 -19 8 0 11 7 7 16 -5 14 -4 14 14 1 18
-14 18 -14 5 3 -17 21 -18 21 -30 -1z"/>
<path d="M3107 3519 c7 -7 15 -10 18 -7 3 3 -2 9 -12 12 -14 6 -15 5 -6 -5z"/>
<path d="M2006 3498 c3 -5 10 -6 15 -3 13 9 11 12 -6 12 -8 0 -12 -4 -9 -9z"/>
<path d="M2226 3502 c-3 -5 1 -9 9 -9 8 0 12 4 9 9 -3 4 -7 8 -9 8 -2 0 -6 -4
-9 -8z"/>
<path d="M2410 3501 c8 -6 11 -11 6 -11 -4 0 -1 -12 9 -26 9 -14 14 -28 12
-31 -3 -2 -13 7 -22 21 -10 14 -22 26 -29 25 -7 0 -6 -2 2 -6 6 -2 10 -9 6
-14 -3 -5 0 -9 5 -9 6 0 11 -5 11 -12 0 -6 -3 -8 -7 -5 -3 4 -13 -2 -20 -13
-11 -15 -18 -18 -32 -10 -10 5 -21 7 -24 3 -4 -3 -10 2 -13 12 -4 10 -1 21 7
26 9 6 10 9 2 9 -7 0 -17 -10 -24 -21 -9 -18 -13 -19 -21 -8 -8 11 -9 11 -5
-2 6 -17 -10 -39 -27 -39 -6 0 -5 5 2 12 7 7 12 16 12 21 0 5 -9 -1 -21 -14
l-20 -24 7 24 c4 16 3 21 -5 17 -6 -4 -11 -14 -11 -22 0 -16 -16 -19 -25 -4
-3 6 -16 10 -28 9 -21 -1 -21 -1 2 -8 21 -6 22 -8 7 -20 -10 -9 -16 -10 -16
-2 0 6 -5 11 -11 11 -8 0 -8 -4 1 -14 6 -8 18 -12 26 -9 8 3 14 0 14 -6 0 -15
-33 -14 -48 1 -7 7 -12 9 -12 5 0 -4 -9 -3 -20 3 -11 6 -17 16 -14 22 4 7 3 8
-4 4 -7 -4 -12 -11 -12 -16 0 -8 34 -23 54 -25 5 0 11 -6 14 -13 2 -7 -2 -10
-12 -6 -11 4 -16 1 -16 -10 0 -21 -14 -20 -31 1 -12 15 -12 16 4 10 9 -4 17
-2 17 4 0 6 -9 9 -19 6 -15 -3 -21 1 -24 17 -4 19 -4 19 -5 1 -1 -11 13 -36
30 -55 17 -19 27 -29 23 -21 -6 10 -4 12 4 7 6 -4 11 -4 10 1 -1 4 -1 15 0 23
1 13 2 13 11 0 6 -9 10 -11 10 -3 0 7 7 10 18 7 14 -5 15 -4 2 6 -12 9 -11 10
9 5 15 -5 21 -3 17 3 -4 7 1 9 14 7 11 -2 18 0 16 4 -3 4 0 8 7 9 7 0 22 3 35
6 12 2 22 3 22 0 0 -6 -63 -29 -72 -26 -5 1 -8 -2 -8 -7 0 -9 -33 -24 -53 -26
-4 0 -11 -5 -15 -10 -14 -20 -105 -74 -115 -68 -5 3 -8 0 -5 -8 2 -7 -14 -29
-36 -48 -23 -18 -41 -36 -41 -40 0 -6 -42 -51 -48 -51 -2 0 -4 7 -4 15 0 8 3
12 7 10 7 -5 4 54 -4 62 -3 3 -1 14 5 24 6 13 6 19 -1 19 -5 0 -10 -7 -10 -16
0 -8 -4 -13 -9 -9 -18 11 -22 -15 -6 -39 9 -14 14 -30 10 -36 -9 -14 -25 -13
-19 3 2 7 -3 21 -11 32 -16 19 -16 19 -6 -2 13 -26 14 -33 2 -33 -5 0 -11 8
-13 18 -3 10 -12 19 -21 19 -9 0 -14 -4 -11 -9 3 -5 9 -6 14 -3 10 6 20 -32
13 -51 -3 -8 -10 -11 -16 -7 -6 3 -7 1 -3 -5 8 -13 -21 -50 -49 -63 -16 -7
-14 -8 9 -4 26 5 28 4 17 -9 -15 -18 -6 -37 13 -30 14 5 16 28 3 40 -4 4 -7
12 -7 18 0 6 5 5 12 -2 7 -7 16 -12 22 -12 5 0 1 7 -10 16 -18 15 -18 15 3 5
31 -15 37 -14 19 5 -9 8 -16 21 -16 27 1 7 10 1 21 -13 19 -22 19 -25 4 -36
-9 -7 -17 -16 -17 -21 -1 -18 -12 -38 -24 -46 -7 -4 -11 -14 -8 -21 3 -7 -2
-16 -10 -19 -9 -4 -13 -13 -10 -20 3 -8 -1 -21 -8 -28 -8 -8 -15 -23 -16 -34
-2 -22 -10 -60 -12 -60 -3 0 -11 -39 -13 -62 -2 -12 -6 -25 -10 -29 -11 -12
-8 -26 5 -18 7 5 8 3 2 -7 -10 -16 -13 -199 -4 -199 4 0 7 -7 7 -16 0 -14 -2
-14 -14 2 -8 11 -19 19 -26 19 -6 0 -13 9 -15 20 -2 11 0 16 5 10 4 -5 15 -11
23 -13 11 -3 9 2 -5 16 -20 19 -20 19 -32 -2 -9 -17 -9 -23 3 -29 8 -4 14 -13
14 -19 0 -7 -5 -6 -15 2 -8 6 -20 10 -27 7 -8 -4 -7 -6 4 -6 10 -1 22 -9 27
-20 11 -19 0 -34 -44 -60 -19 -12 -19 -12 2 -6 12 3 24 1 28 -5 3 -6 -4 -10
-17 -11 -17 -1 -18 -3 -6 -6 10 -2 28 3 40 13 13 9 16 14 6 11 -25 -9 -29 3
-8 25 10 11 16 26 14 32 -3 7 2 13 11 13 9 0 14 -6 11 -13 -3 -9 1 -11 11 -7
10 4 14 2 9 -5 -3 -6 -2 -13 4 -17 6 -4 8 -11 4 -16 -3 -5 -1 -16 5 -23 6 -7
12 -25 13 -40 1 -14 7 -26 13 -26 5 0 2 -5 -8 -11 -9 -6 -15 -14 -12 -20 3 -5
-1 -6 -11 -2 -11 4 -15 2 -12 -7 2 -7 14 -14 26 -15 17 -1 19 2 12 15 -6 12
-5 17 5 17 8 0 12 -4 9 -9 -3 -5 2 -18 11 -28 9 -10 14 -24 10 -29 -3 -6 -1
-11 5 -11 6 0 9 -4 6 -8 -3 -5 4 -16 15 -25 11 -10 17 -21 14 -26 -2 -5 2 -12
11 -15 8 -3 12 -10 9 -16 -3 -6 1 -13 9 -16 9 -3 14 -10 11 -15 -3 -4 -14 -1
-25 8 -15 13 -16 19 -7 25 6 4 -3 6 -20 3 -31 -3 -41 4 -26 18 3 4 11 2 18 -3
8 -7 12 -5 12 5 0 8 -5 11 -10 8 -6 -3 -7 -1 -3 5 3 6 -2 16 -13 22 -25 13
-38 -4 -21 -25 15 -18 6 -19 -21 -5 -13 7 -19 7 -19 0 0 -5 5 -10 12 -10 6 0
20 -7 30 -16 17 -16 17 -18 0 -31 -15 -13 -15 -14 0 -9 9 3 19 -2 22 -10 8
-22 7 -26 -4 -19 -5 3 -10 1 -10 -5 0 -7 6 -10 13 -7 12 4 13 17 6 46 -2 7 1
15 7 18 7 2 11 -4 10 -14 0 -11 5 -18 16 -17 20 2 18 -43 -3 -56 -7 -5 -10
-12 -5 -17 4 -4 12 -1 16 7 22 36 29 44 36 38 3 -4 -4 -21 -16 -38 -17 -23
-20 -34 -11 -43 6 -6 11 -7 11 -2 0 6 5 3 11 -5 9 -13 10 -13 6 0 -2 8 2 28
10 44 12 22 12 26 1 20 -11 -6 -11 -5 0 8 11 14 10 17 -7 23 -18 5 -30 25 -16
25 11 0 44 -34 39 -41 -2 -4 5 -10 16 -14 11 -3 20 -12 20 -18 0 -7 16 -23 34
-37 32 -23 38 -40 15 -40 -6 0 -7 6 -2 13 4 6 -5 4 -20 -6 -31 -20 -35 -13 -9
17 17 21 17 21 -5 2 -19 -15 -25 -16 -38 -6 -8 7 -15 17 -15 22 0 6 6 5 14 -2
11 -9 19 -9 33 0 17 11 17 11 0 6 -10 -3 -15 -2 -12 4 4 6 -1 7 -12 3 -15 -6
-16 -4 -5 9 9 12 10 18 2 23 -6 4 -14 4 -17 1 -4 -3 0 -6 8 -6 12 0 12 -2 0
-9 -8 -5 -15 -20 -17 -33 -1 -12 -3 -27 -3 -31 -1 -5 -5 -6 -9 -3 -4 2 -14 0
-22 -5 -11 -7 -9 -8 9 -6 14 2 27 9 29 16 3 8 12 5 28 -10 13 -12 24 -19 24
-15 0 4 7 0 16 -8 25 -25 41 -18 35 17 -2 12 22 8 38 -8 27 -26 89 -64 95 -57
3 3 6 0 6 -6 0 -7 7 -12 16 -12 8 0 12 -5 9 -10 -5 -8 -11 -8 -20 0 -9 8 -15
8 -20 0 -3 -5 -11 -10 -17 -10 -7 0 -6 5 1 14 8 9 8 16 2 20 -5 4 -12 2 -16
-4 -8 -13 -35 -13 -35 0 0 6 3 9 8 8 4 -2 8 1 10 7 2 5 -1 11 -7 13 -6 2 -11
-1 -11 -8 0 -6 -5 -8 -10 -5 -6 4 -8 11 -5 16 3 5 -2 6 -12 3 -12 -4 -14 -3
-6 3 8 6 9 14 3 23 -8 12 -10 11 -11 -5 -1 -11 -1 -23 0 -28 1 -4 -9 -6 -21
-3 -33 6 -78 28 -78 38 0 19 -16 6 -17 -14 0 -13 1 -18 4 -11 7 19 53 -6 46
-26 -4 -14 -3 -14 6 -1 10 13 12 13 21 0 14 -22 12 -30 -7 -24 -15 5 -15 4 -3
-4 20 -15 32 -4 24 20 -5 17 -3 18 15 9 12 -7 21 -16 21 -22 0 -6 -5 -7 -12
-3 -7 4 -8 3 -4 -5 4 -6 11 -9 16 -6 4 3 11 -2 14 -11 4 -9 9 -14 12 -11 4 3
-4 20 -16 36 -12 17 -16 31 -10 31 6 0 13 -7 17 -15 7 -21 60 -48 75 -39 7 5
9 2 5 -9 -4 -11 -2 -14 8 -11 11 4 13 -1 9 -23 -5 -27 -5 -27 10 -8 16 20 16
20 31 1 8 -11 15 -25 15 -30 0 -6 -7 -3 -14 7 -7 9 -17 17 -21 17 -5 0 -1 -8
8 -18 13 -14 14 -21 5 -30 -9 -9 -9 -12 1 -12 7 0 9 -5 5 -12 -4 -7 -3 -8 5
-4 6 4 9 12 6 17 -13 20 7 30 26 13 10 -9 19 -14 19 -9 0 4 6 2 14 -4 11 -9
16 -9 22 0 4 8 3 9 -4 5 -7 -4 -12 -2 -12 3 0 6 5 11 10 11 6 0 10 5 10 10 0
6 -10 4 -23 -5 -13 -8 -26 -12 -30 -9 -5 6 54 44 67 44 3 0 3 -13 1 -30 -2
-16 1 -30 6 -30 6 0 8 4 5 9 -3 5 1 12 10 15 24 9 26 8 14 -15 -7 -11 -9 -24
-5 -27 3 -3 8 4 12 16 3 12 9 22 14 22 13 0 11 -13 -7 -38 -8 -12 -13 -22 -10
-22 3 0 13 12 23 26 16 25 16 27 -1 39 -10 8 -13 16 -7 19 5 4 16 -3 24 -14 9
-14 20 -18 32 -14 15 6 15 5 4 -14 -7 -12 -16 -17 -19 -12 -3 5 -11 0 -18 -10
-7 -12 -8 -20 -2 -20 5 0 10 5 10 11 0 5 4 8 9 5 11 -7 31 16 36 43 3 19 1 20
-17 10 -16 -9 -19 -8 -13 2 6 8 4 10 -5 4 -9 -6 -11 -4 -5 5 6 9 4 11 -5 5 -8
-5 -11 -4 -7 1 3 6 -5 10 -18 10 -13 0 -22 -3 -19 -7 2 -4 -3 -9 -11 -12 -8
-4 -12 -1 -9 6 2 7 -5 18 -16 25 -11 7 -20 8 -20 3 0 -5 -15 -16 -32 -24 -32
-15 -33 -15 -45 6 -7 15 -8 26 -1 34 7 9 3 11 -15 8 -26 -5 -35 20 -10 29 9 4
11 1 7 -6 -5 -8 -2 -9 9 -5 10 3 17 2 17 -2 0 -5 8 -8 18 -6 9 1 25 -4 35 -13
9 -8 17 -12 17 -9 0 4 12 2 28 -4 15 -6 40 -12 57 -14 16 -2 31 -8 33 -14 2
-6 8 -11 13 -11 6 0 8 4 5 9 -4 5 2 8 11 6 10 -2 18 -4 18 -5 0 -1 53 -3 117
-4 64 -1 115 1 113 4 -2 3 4 6 13 7 9 0 27 4 40 7 12 3 32 9 45 12 12 3 30 7
40 7 9 1 17 5 17 9 0 4 3 7 8 6 4 -1 21 4 37 11 17 7 31 11 31 9 1 -2 10 4 20
13 29 25 49 34 39 19 -5 -9 -2 -10 15 -5 20 6 21 5 11 -14 -12 -22 -33 -29
-29 -10 2 6 -4 14 -12 16 -13 4 -13 3 0 -6 14 -10 8 -13 -16 -10 -4 0 -11 -5
-15 -13 -7 -10 -9 -10 -9 2 -1 12 -3 12 -11 -2 -5 -10 -17 -15 -27 -12 -13 5
-14 4 -4 -4 11 -7 11 -10 -2 -15 -8 -3 -25 -4 -37 -2 -34 7 -57 -11 -53 -40 2
-20 -1 -25 -12 -21 -9 3 -12 1 -9 -4 3 -6 2 -10 -3 -10 -12 0 -24 29 -17 40 7
11 -37 6 -56 -6 -19 -12 -33 -12 -41 1 -5 6 -11 5 -17 -3 -4 -8 -12 -14 -16
-14 -4 0 -12 6 -16 14 -7 10 -9 10 -9 -2 0 -13 -1 -13 -10 0 -5 8 -10 10 -10
4 0 -6 -13 -10 -30 -10 -16 0 -30 4 -30 9 0 5 -8 3 -17 -4 -11 -10 -14 -10 -9
-1 4 7 2 12 -4 12 -7 0 -9 -7 -6 -16 3 -8 -1 -28 -9 -44 -14 -27 -13 -29 13
-45 27 -16 27 -16 5 3 -15 13 -18 23 -12 33 5 8 9 10 9 5 0 -5 9 -1 20 9 18
16 22 17 38 3 18 -16 42 -14 42 4 0 7 -5 6 -14 -1 -8 -7 -17 -8 -19 -3 -3 4 3
13 13 20 16 10 21 9 28 -6 5 -9 7 -23 5 -29 -8 -21 25 -15 37 7 6 11 16 17 25
14 8 -4 18 1 21 10 3 9 11 13 17 9 6 -3 7 -1 3 5 -4 7 -3 12 3 12 24 0 18 -20
-12 -39 -17 -11 -27 -21 -21 -21 7 0 22 9 35 19 18 14 29 17 42 9 13 -7 25 -5
42 6 20 13 24 13 29 1 3 -9 -1 -15 -9 -15 -8 0 -15 -5 -15 -10 0 -7 7 -7 20 0
11 6 18 15 14 21 -3 5 0 16 6 24 10 12 10 15 0 15 -17 0 -4 13 16 16 11 2 14
-3 9 -14 -4 -9 -9 -23 -12 -29 -3 -7 0 -13 7 -13 6 0 9 4 5 9 -3 5 -1 12 5 16
5 3 10 15 10 26 0 11 5 17 10 14 6 -4 8 -11 4 -16 -3 -5 -2 -9 3 -8 20 3 34
-2 28 -11 -3 -6 1 -7 10 -4 11 5 14 2 9 -12 -5 -16 -4 -16 5 -4 8 11 7 18 -4
26 -12 9 -9 15 16 40 30 28 31 28 24 5 -5 -16 -4 -21 4 -17 6 4 11 16 11 27 0
10 3 18 8 18 4 -1 14 -1 22 0 13 1 13 2 0 11 -23 14 -4 23 21 10 l22 -13 -22
-12 c-20 -10 -21 -13 -7 -18 10 -4 15 -3 12 2 -3 5 1 11 9 15 19 7 8 36 -13
36 -8 0 -12 3 -8 7 11 11 50 11 64 1 12 -10 17 0 13 30 -2 15 15 16 22 2 3 -6
4 -5 3 2 -2 7 -12 12 -23 11 -12 -1 -20 4 -20 13 0 8 5 13 11 11 6 -2 22 4 35
15 22 17 26 17 48 2 19 -12 27 -13 39 -3 17 14 19 32 2 26 -7 -2 -12 -10 -10
-17 1 -6 -3 -10 -10 -8 -14 5 -25 39 -11 37 4 -1 15 -1 23 0 12 1 13 3 1 10
-8 5 -9 11 -3 15 6 3 18 -4 26 -16 9 -12 18 -20 20 -17 3 3 -6 18 -19 33 -14
16 -25 34 -25 40 1 6 17 -7 36 -29 30 -33 34 -36 23 -12 -7 15 -16 27 -21 27
-5 0 -7 4 -3 10 3 5 11 8 18 6 7 -1 9 -1 5 1 -5 3 -8 9 -8 14 0 6 5 7 12 3 8
-5 9 -2 5 10 -4 11 2 26 18 42 29 29 51 33 33 5 -7 -11 -16 -19 -22 -18 -5 1
-11 -7 -13 -18 l-3 -20 9 20 c5 11 10 16 11 10 0 -5 10 1 21 15 15 17 19 19
15 7 -3 -10 -2 -15 4 -12 10 6 8 54 -3 72 -4 6 0 16 9 23 8 7 13 19 10 27 -3
8 2 17 12 21 15 6 15 9 -7 32 -21 22 -22 23 -12 3 13 -26 14 -36 2 -29 -5 3
-14 -1 -21 -9 -11 -14 -7 -19 13 -16 9 1 9 -13 0 -22 -3 -4 -12 -2 -18 3 -9 7
-16 6 -25 -5 -9 -10 -9 -15 -1 -15 6 0 11 5 11 12 0 14 13 2 16 -15 1 -7 5
-21 9 -32 6 -18 5 -17 -12 3 -11 14 -25 21 -34 17 -17 -6 -22 -35 -6 -35 5 0
4 -7 -3 -15 -11 -13 -15 -13 -22 -3 -7 9 -8 7 -4 -7 3 -11 1 -27 -4 -35 -9
-13 -10 -13 -10 0 0 12 -2 12 -9 1 -6 -9 -11 -10 -15 -2 -4 6 -2 11 4 11 6 0
9 4 6 9 -3 4 6 18 19 31 13 13 22 26 20 30 -3 4 4 19 15 32 11 14 16 29 12 33
-4 5 -1 5 6 1 9 -6 12 -2 10 10 -2 12 2 18 11 16 9 -2 11 3 7 14 -3 9 -1 23 5
30 6 8 8 14 4 14 -4 0 -3 6 3 13 6 6 11 15 11 20 1 4 1 8 2 10 0 1 3 13 5 27
7 35 19 44 44 30 13 -7 20 -8 16 -2 -3 6 4 14 16 18 l21 6 -23 13 c-17 9 -19
14 -9 17 17 6 8 17 -18 22 -12 3 -20 -1 -20 -10 0 -11 3 -11 16 -1 12 10 14 9
8 -5 -4 -11 0 -21 11 -27 14 -9 14 -10 2 -11 -9 0 -22 6 -29 13 -11 10 -13 10
-7 0 4 -7 3 -13 -3 -13 -6 0 -8 15 -5 38 3 20 6 74 7 120 1 45 4 82 8 82 3 0
14 -8 23 -19 15 -17 15 -19 1 -25 -9 -3 -13 -2 -10 3 3 5 1 12 -3 15 -10 6 -9
-74 1 -91 4 -6 1 -14 -5 -16 -10 -4 -9 -6 1 -6 11 -1 11 -4 0 -18 -8 -9 -9
-14 -2 -10 6 4 13 1 16 -5 2 -7 8 -9 13 -5 5 4 2 13 -6 18 -13 9 -13 10 1 6 9
-3 22 -1 30 4 12 8 12 10 -1 8 -28 -3 -41 1 -35 11 3 5 11 8 18 6 7 -1 9 -1 5
1 -14 8 -8 25 6 20 8 -3 21 0 30 6 14 11 13 15 -5 37 -15 18 -19 20 -15 7 4
-12 2 -17 -6 -15 -27 9 -13 33 17 31 25 -2 27 0 12 8 -10 6 -24 8 -32 5 -7 -2
-19 2 -27 11 -11 14 -10 15 12 9 18 -5 21 -5 10 3 -8 5 -11 14 -6 18 4 4 14
-1 22 -11 10 -14 14 -16 14 -5 0 8 -13 23 -29 34 -16 10 -27 23 -25 27 3 5 9
6 14 3 4 -3 11 2 14 11 3 8 9 13 14 10 4 -2 14 0 22 5 12 7 10 8 -6 6 -11 -1
-36 -13 -55 -25 -32 -21 -33 -22 -11 -28 12 -4 22 -11 22 -16 0 -5 -5 -6 -12
-2 -6 4 -8 3 -4 -4 3 -6 2 -13 -4 -17 -5 -3 -10 -1 -10 5 0 6 -4 9 -9 6 -5 -4
-8 2 -6 11 1 10 -2 24 -8 31 -5 6 -7 12 -3 12 3 0 2 10 -3 23 -10 26 13 87 32
87 6 0 7 -3 4 -7 -4 -3 1 -12 11 -20 16 -12 15 -13 -8 -11 -20 2 -25 -2 -26
-19 -1 -13 3 -23 7 -23 5 0 9 -5 9 -11 0 -5 -5 -7 -12 -3 -7 5 -8 3 -3 -6 6
-10 11 -10 20 3 7 9 14 14 17 12 3 -3 11 1 18 10 8 10 9 15 1 15 -6 0 -11 -4
-11 -10 0 -5 -6 -9 -12 -7 -15 2 -28 18 -28 32 0 6 4 4 8 -2 6 -10 13 -9 30 3
12 8 22 21 22 27 0 8 -3 8 -9 -2 -6 -9 -11 -10 -15 -2 -4 6 0 14 8 17 9 3 16
11 16 16 0 6 -7 5 -15 -2 -13 -10 -19 -10 -33 4 -10 9 -22 13 -25 9 -4 -3 -7
-1 -7 5 0 5 3 12 8 15 4 2 1 2 -6 0 -8 -1 -12 3 -9 9 2 7 11 12 20 10 21 -4
32 17 17 31 -10 9 -12 8 -7 -5 7 -19 -8 -25 -18 -7 -4 5 1 19 11 30 10 11 18
31 19 45 1 23 0 24 -12 8 -10 -14 -10 -19 0 -26 11 -7 2 -12 -17 -9 -4 1 -14
-3 -21 -9 -16 -14 -57 -22 -50 -10 3 4 -1 11 -7 13 -10 4 -9 6 1 6 9 1 6 8 -9
21 -13 11 -19 20 -13 20 5 0 20 -9 33 -20 13 -12 18 -20 10 -20 -7 0 -11 -2
-8 -5 3 -3 17 0 32 6 20 10 23 15 15 26 -7 8 -20 11 -33 7 -18 -6 -19 -5 -8 9
8 9 19 14 26 11 16 -6 29 23 15 32 -6 3 -13 3 -16 0 -4 -3 -1 -6 6 -6 7 0 10
-4 6 -10 -3 -5 -12 -7 -19 -4 -7 3 -16 -2 -19 -10 -4 -9 -12 -16 -18 -16 -8 0
-8 4 1 15 8 9 8 15 2 15 -6 0 -12 -6 -15 -12 -3 -10 -10 -8 -25 6 -12 10 -19
22 -16 27 2 4 -10 22 -28 40 -18 17 -33 36 -33 42 -1 7 -7 11 -15 9 -8 -2 -12
0 -8 4 4 4 -11 23 -35 43 -23 20 -52 46 -64 58 -13 13 -24 22 -26 22 -1 -1
-19 9 -40 21 -27 16 -35 26 -27 35 5 6 7 15 3 18 -3 4 -1 7 5 7 5 0 13 -6 15
-12 4 -9 6 -10 6 -1 1 6 -6 18 -14 26 -8 8 -11 18 -7 22 4 5 2 5 -5 1 -7 -4
-9 -14 -6 -24 6 -15 5 -15 -11 -2 -17 13 -17 15 9 38 15 12 26 25 24 27 -7 6
-35 -19 -53 -47 -10 -15 -23 -25 -29 -21 -5 3 -7 1 -4 -5 4 -5 18 -9 32 -7 29
3 43 -10 20 -19 -8 -3 -17 -1 -20 5 -4 5 -10 7 -15 4 -11 -7 -33 22 -25 35 3
6 11 7 17 4 20 -13 -5 20 -34 44 -15 13 -28 34 -29 45 0 12 -3 16 -6 9 -3 -7
-1 -20 3 -30 4 -9 6 -21 5 -25 -1 -5 4 -5 10 -1 7 4 10 1 7 -7 -3 -8 -10 -14
-17 -14 -6 0 -16 -7 -22 -15 -9 -13 -10 -12 -5 3 3 9 8 23 11 30 3 7 -3 24
-15 37 -24 28 -25 34 -5 26 8 -3 15 -1 15 4 0 14 -24 12 -39 -2 -11 -10 -14
-10 -18 0 -3 6 -9 12 -15 12 -6 0 -6 -6 2 -15 10 -12 9 -16 -4 -21 -9 -3 -23
-3 -32 0 -15 6 -15 8 2 27 16 18 16 19 1 13 -16 -6 -21 -17 -18 -36 2 -13 -9
-9 -31 12 -16 15 -24 17 -29 8 -4 -7 -5 -16 -3 -20 3 -4 1 -8 -5 -8 -20 0 -20
17 0 38 11 12 15 22 10 22 -12 0 -34 -37 -38 -65 -2 -16 -1 -17 7 -5 7 11 10
11 10 2 0 -7 4 -11 9 -7 5 3 12 1 15 -4 8 -12 30 -8 50 8 10 9 16 9 16 3 0 -7
8 -9 18 -5 15 6 15 5 3 -10 -7 -10 -9 -17 -3 -17 6 0 12 5 14 12 3 9 6 9 12 0
4 -7 2 -12 -4 -12 -6 0 -8 -5 -4 -11 5 -8 1 -8 -13 0 -11 6 -23 7 -27 3 -4 -3
-4 1 0 11 6 16 4 16 -20 6 -20 -9 -29 -9 -41 1 -12 10 -15 10 -15 -1 0 -9 -3
-10 -8 -3 -4 5 -39 10 -78 9 -64 0 -70 1 -69 19 1 11 7 22 13 24 7 2 9 -5 7
-19 -2 -12 -1 -18 3 -15 4 4 8 24 8 44 2 49 3 50 14 32 8 -13 11 -13 27 3 11
10 13 17 5 17 -7 0 -12 -5 -12 -11 0 -8 -4 -8 -13 0 -18 14 -38 -5 -29 -28 5
-14 3 -14 -11 -3 -9 8 -15 19 -14 24 1 6 -5 13 -13 15 -13 4 -13 3 0 -6 8 -6
11 -11 6 -11 -5 0 -3 -7 4 -15 9 -10 9 -19 2 -27 -10 -13 -12 -19 -12 -37 0
-6 -8 -9 -17 -9 -10 0 -32 -2 -50 -6 -17 -3 -34 -2 -37 3 -3 4 6 7 19 5 14 -1
23 2 20 6 -3 5 -13 6 -23 3 -9 -3 -14 -3 -10 2 10 10 58 15 58 6 0 -4 7 -8 15
-8 8 0 11 5 8 10 -3 6 -2 8 3 5 5 -4 10 6 10 20 1 15 -1 21 -3 15 -3 -7 -9
-13 -14 -13 -6 0 -7 6 -3 13 6 9 4 9 -8 -1 -14 -11 -18 -10 -29 10 -7 13 -11
25 -10 28 1 2 -3 6 -11 8 -9 2 -8 0 2 -7z m55 -61 c3 -5 1 -10 -4 -10 -6 0
-11 5 -11 10 0 6 2 10 4 10 3 0 8 -4 11 -10z m233 -2 c16 -16 15 -27 -3 -24
-20 3 -32 16 -14 16 11 0 11 2 -1 10 -8 5 -10 10 -4 10 5 0 15 -5 22 -12z
m141 -56 c-7 -12 -19 -17 -31 -14 -24 6 -23 22 2 17 25 -5 32 6 16 27 -8 11
-17 14 -27 7 -11 -7 -11 -9 4 -9 11 0 15 -5 11 -11 -4 -7 -12 -6 -23 6 -15 15
-15 17 3 30 17 13 21 12 38 -10 15 -20 17 -28 7 -43z m-526 19 c-2 -6 2 -11 7
-11 6 0 10 6 10 13 0 8 3 9 8 1 4 -6 15 -10 25 -8 9 1 17 -2 17 -6 0 -5 -8 -8
-17 -8 -25 1 -47 -5 -55 -16 -4 -6 -13 -4 -22 3 -9 8 -16 10 -16 6 0 -5 -3 -5
-7 -2 -9 9 28 48 41 43 6 -2 10 -9 9 -15z m-93 -26 c0 -5 4 -4 9 4 6 9 11 10
15 2 4 -6 2 -12 -3 -12 -21 -3 -26 -4 -38 -12 -7 -5 -13 -6 -13 -3 0 2 -2 11
-5 18 -4 9 2 14 15 14 11 0 20 -5 20 -11z m694 -3 c2 -4 -2 -16 -10 -27 -8
-10 -14 -13 -14 -7 0 7 -5 11 -11 10 -6 -2 -14 4 -16 12 -4 12 -3 12 5 2 7
-11 10 -11 15 2 7 17 23 21 31 8z m-1033 -214 c11 -21 11 -22 -4 -9 -10 7 -17
17 -17 22 0 15 9 10 21 -13z m-6 -67 c-3 -2 0 -10 6 -18 16 -19 -1 -16 -24 5
-20 17 -20 17 -2 -13 l18 -30 -22 21 c-26 24 -23 40 8 40 11 0 18 -2 16 -5z
m-82 -106 c-3 -9 -8 -14 -10 -11 -3 3 -2 9 2 15 9 16 15 13 8 -4z m1577 -25
c0 -5 -4 -10 -10 -10 -5 0 -10 5 -10 10 0 6 5 10 10 10 6 0 10 -4 10 -10z m20
-45 c-7 -9 -10 -18 -7 -22 4 -3 2 -12 -4 -19 -12 -15 6 -58 22 -49 16 10 10
-12 -11 -36 -17 -21 -19 -22 -20 -6 0 10 5 15 10 12 6 -3 10 -2 10 3 0 6 -7
12 -15 16 -9 3 -12 12 -8 22 4 12 3 15 -5 10 -8 -5 -10 -1 -5 10 4 12 3 15 -5
10 -8 -5 -10 -2 -6 8 4 10 1 16 -7 16 -8 0 0 9 16 19 37 24 52 26 35 6z m89
-361 c5 4 12 2 16 -4 6 -10 -7 -14 -33 -11 -7 1 -15 -5 -19 -14 -9 -24 -21 0
-15 31 4 23 6 24 23 8 10 -9 22 -13 28 -10z m-1669 -419 c0 -12 -19 -12 -23 0
-4 9 -1 12 9 8 7 -3 14 -7 14 -8z m1520 -20 c0 -8 -4 -15 -10 -15 -5 0 -10 7
-10 15 0 8 5 15 10 15 6 0 10 -7 10 -15z m-1485 -55 c3 -5 1 -10 -4 -10 -6 0
-11 5 -11 10 0 6 2 10 4 10 3 0 8 -4 11 -10z m1415 -41 c0 -14 -14 -18 -27 -8
-7 6 -14 10 -14 8 -2 -4 -8 -46 -11 -65 -1 -7 -12 -11 -25 -9 -25 2 -45 15
-24 15 7 0 9 5 5 12 -4 6 -3 8 4 4 6 -3 18 7 28 24 13 20 25 29 41 28 13 -2
23 -5 23 -9z m-1380 -59 c-6 -12 -14 -20 -17 -17 -2 3 1 14 8 26 7 11 15 18
17 16 2 -2 -2 -13 -8 -25z m1295 -31 c3 -4 -6 -6 -21 -3 -15 3 -23 1 -20 -5 7
-11 -12 -25 -34 -26 -8 0 -14 -5 -13 -12 3 -16 -25 -25 -33 -10 -4 7 -4 9 0 6
4 -4 24 10 44 30 35 34 64 42 77 20z m-1176 -38 c7 -5 9 -11 5 -14 -5 -3 -15
1 -22 9 -14 16 -5 18 17 5z m1102 -48 c9 -9 9 -13 0 -13 -6 0 -11 5 -11 11 0
8 -5 7 -15 -1 -9 -7 -18 -10 -22 -7 -3 4 -12 2 -18 -3 -7 -6 -20 -7 -30 -4
-15 6 -15 9 6 20 31 16 76 15 90 -3z m-940 -60 c13 -16 12 -17 -3 -4 -10 7
-18 15 -18 17 0 8 8 3 21 -13z m796 -20 c-9 -9 -20 -13 -24 -9 -4 4 -1 11 7
16 25 16 35 11 17 -7z m-36 -36 c-18 -18 -38 8 -21 28 12 15 14 15 23 0 6 -11
5 -21 -2 -28z m-98 2 c-6 -6 -9 -17 -7 -24 3 -6 -1 -12 -9 -12 -19 0 -16 30 3
39 22 10 25 9 13 -3z m-89 -35 c5 -14 4 -15 -9 -4 -17 14 -19 20 -6 20 5 0 12
-7 15 -16z m-224 -10 c0 -3 -7 -12 -15 -20 -16 -17 -18 -14 -9 10 6 15 24 23
24 10z m160 -7 c0 -5 -7 -7 -15 -3 -9 3 -20 -3 -27 -14 -7 -11 -16 -20 -21
-20 -4 0 -5 5 -2 10 4 6 2 16 -4 23 -8 10 -1 13 30 13 21 0 39 -4 39 -9z"/>
<path d="M2285 3400 c-3 -5 -1 -10 5 -10 6 0 8 -5 4 -12 -4 -7 -3 -8 4 -4 6 4
9 13 5 21 -6 18 -10 19 -18 5z"/>
<path d="M3358 2893 c6 -2 9 -10 6 -15 -4 -7 -2 -8 5 -4 13 9 5 26 -12 25 -9
0 -8 -2 1 -6z"/>
<path d="M3184 1968 l-19 -23 23 19 c12 11 22 21 22 23 0 8 -8 2 -26 -19z"/>
<path d="M3020 1840 c-9 -6 -10 -10 -3 -10 6 0 15 5 18 10 8 12 4 12 -15 0z"/>
<path d="M2636 3492 c-4 -11 -19 -25 -34 -31 -35 -15 -40 -47 -7 -47 18 0 22
5 20 23 -1 13 1 23 6 23 10 0 32 40 26 47 -3 2 -8 -4 -11 -15z m-26 -51 c0 -6
-4 -13 -10 -16 -5 -3 -10 1 -10 9 0 9 5 16 10 16 6 0 10 -4 10 -9z"/>
<path d="M2906 3502 c-2 -4 4 -8 14 -8 10 0 16 4 14 8 -3 4 -9 8 -14 8 -5 0
-11 -4 -14 -8z"/>
<path d="M2173 3477 c0 -12 1 -17 4 -10 2 7 12 9 21 6 18 -6 17 -5 -8 14 -13
10 -16 8 -17 -10z"/>
<path d="M2351 3469 c-11 -26 -11 -33 0 -39 17 -11 29 -3 28 18 0 14 -2 14 -8
-2 -5 -14 -10 -16 -15 -7 -4 6 -2 18 4 26 7 8 10 19 8 25 -1 5 -9 -4 -17 -21z"/>
<path d="M2441 3484 c0 -11 3 -14 6 -6 3 7 2 16 -1 19 -3 4 -6 -2 -5 -13z"/>
<path d="M1980 3486 c0 -2 8 -10 18 -17 15 -13 16 -12 3 4 -13 16 -21 21 -21
13z"/>
<path d="M2120 3486 c0 -2 8 -10 18 -17 15 -13 16 -12 3 4 -13 16 -21 21 -21
13z"/>
<path d="M2250 3480 c-9 -6 -10 -10 -3 -10 6 0 15 5 18 10 8 12 4 12 -15 0z"/>
<path d="M2298 3478 c6 -6 18 -8 28 -6 14 3 12 5 -9 10 -19 3 -25 2 -19 -4z"/>
<path d="M2573 3476 c-13 -6 -23 -14 -23 -19 0 -4 5 -5 10 -2 6 3 22 13 38 21
31 16 8 17 -25 0z"/>
<path d="M2690 3481 c0 -5 7 -11 14 -14 10 -4 13 -1 9 9 -6 15 -23 19 -23 5z"/>
<path d="M2795 3480 c3 -5 8 -10 11 -10 2 0 4 5 4 10 0 6 -5 10 -11 10 -5 0
-7 -4 -4 -10z"/>
<path d="M3015 3480 c-3 -5 -1 -10 4 -10 6 0 11 5 11 10 0 6 -2 10 -4 10 -3 0
-8 -4 -11 -10z"/>
<path d="M2079 3468 c-7 -23 -4 -35 7 -35 9 0 11 4 4 12 -5 7 -7 15 -3 18 3 4
3 7 0 7 -4 0 -7 -1 -8 -2z"/>
<path d="M2214 3458 c-4 -6 -3 -8 4 -4 5 3 12 1 14 -5 2 -7 9 -10 16 -8 8 3 5
9 -7 16 -15 9 -22 10 -27 1z"/>
<path d="M2270 3460 c0 -5 5 -10 10 -10 6 0 10 5 10 10 0 6 -4 10 -10 10 -5 0
-10 -4 -10 -10z"/>
<path d="M2910 3459 c0 -5 5 -7 10 -4 6 3 10 8 10 11 0 2 -4 4 -10 4 -5 0 -10
-5 -10 -11z"/>
<path d="M2946 3457 c3 -9 10 -17 15 -17 18 0 24 -2 37 -12 7 -6 15 -8 19 -4
3 3 1 6 -6 6 -7 0 -10 4 -7 9 4 5 -2 8 -11 6 -10 -1 -26 5 -36 13 -16 15 -17
14 -11 -1z"/>
<path d="M2156 3438 c3 -4 9 -8 15 -8 5 0 9 4 9 8 0 5 -7 9 -15 9 -8 0 -12 -4
-9 -9z"/>
<path d="M2891 3439 c-1 -22 31 -50 48 -40 10 7 9 9 -3 14 -9 4 -19 6 -23 6
-4 0 -10 8 -14 18 -6 14 -8 15 -8 2z"/>
<path d="M3040 3445 c0 -2 6 -8 13 -14 10 -8 14 -7 14 2 0 8 -6 14 -14 14 -7
0 -13 -1 -13 -2z"/>
<path d="M2195 3429 c-4 -6 -5 -12 -2 -15 2 -3 7 2 10 11 7 17 1 20 -8 4z"/>
<path d="M2546 3424 c-5 -14 -4 -15 9 -4 17 14 19 20 6 20 -5 0 -12 -7 -15
-16z"/>
<path d="M2113 3403 c-1 -24 -1 -25 7 -8 11 26 12 35 2 35 -4 0 -8 -12 -9 -27z"/>
<path d="M2956 3417 c3 -10 9 -15 12 -12 3 3 0 11 -7 18 -10 9 -11 8 -5 -6z"/>
<path d="M1913 3407 c0 -8 6 -14 14 -14 9 0 10 4 2 14 -6 7 -12 13 -14 13 -1
0 -2 -6 -2 -13z"/>
<path d="M2055 3409 c-4 -6 -5 -12 -2 -15 2 -3 7 2 10 11 7 17 1 20 -8 4z"/>
<path d="M1870 3399 c0 -5 5 -7 10 -4 6 3 10 8 10 11 0 2 -4 4 -10 4 -5 0 -10
-5 -10 -11z"/>
<path d="M1990 3400 c0 -4 7 -7 15 -6 23 3 26 12 5 13 -11 1 -20 -2 -20 -7z"/>
<path d="M3066 3398 c3 -5 10 -6 15 -3 13 9 11 12 -6 12 -8 0 -12 -4 -9 -9z"/>
<path d="M2940 3379 c0 -5 5 -7 10 -4 6 3 10 8 10 11 0 2 -4 4 -10 4 -5 0 -10
-5 -10 -11z"/>
<path d="M3015 3380 c-10 -15 17 -49 34 -42 10 3 6 -5 -8 -20 -14 -14 -30 -25
-35 -24 -6 2 -8 1 -4 -1 4 -3 10 -3 12 -1 3 2 12 -6 20 -17 8 -11 19 -21 25
-21 6 -1 16 -2 21 -3 6 0 9 -5 8 -9 -5 -15 69 -72 86 -66 11 4 15 2 11 -8 -3
-8 3 -22 14 -32 11 -10 18 -23 15 -27 -3 -5 3 -6 12 -2 13 5 15 3 9 -8 -8 -12
-6 -12 8 0 19 15 24 2 6 -16 -7 -7 -7 -13 -1 -17 6 -3 13 -2 17 3 3 6 12 8 20
4 8 -3 15 0 15 6 0 6 -5 10 -11 8 -6 -1 -14 4 -17 12 -2 8 0 11 5 8 5 -3 22 3
39 14 16 10 24 19 19 19 -6 0 -16 -5 -21 -10 -15 -15 -52 -21 -59 -9 -4 5 -2
9 3 9 5 0 14 11 20 25 18 40 14 43 -8 7 -11 -18 -25 -30 -30 -27 -6 3 -1 15
10 27 11 12 17 24 15 27 -3 2 -12 -5 -21 -17 -8 -12 -20 -22 -26 -22 -7 0 -6
6 2 15 12 15 4 20 -22 16 -17 -2 -7 29 14 43 12 9 19 18 16 21 -3 4 -18 -6
-32 -20 -15 -15 -31 -23 -38 -19 -8 5 -5 11 10 17 12 6 22 14 22 19 0 13 -18
10 -23 -4 -2 -7 -8 -9 -13 -5 -4 4 2 17 14 30 12 12 22 16 22 9 0 -19 14 -14
29 11 13 20 13 21 -2 9 -9 -8 -20 -11 -25 -8 -13 8 -54 -34 -48 -49 7 -20 -30
-14 -43 7 -9 15 -8 17 10 15 12 -1 23 4 25 11 1 7 0 8 -3 2 -7 -14 -24 -13
-22 3 3 27 -1 38 -13 30 -7 -4 -26 -8 -41 -9 l-28 -2 20 20 c27 24 26 26 -4
38 -14 5 -25 15 -25 21 0 8 6 7 18 -2 15 -13 16 -12 3 4 -16 20 -18 20 -26 7z
m63 -102 c9 -9 12 -9 12 0 0 7 5 12 11 12 8 0 8 -4 -1 -15 -10 -12 -26 -14
-58 -6 -6 2 9 21 17 21 4 0 12 -5 19 -12z m97 -79 c6 1 4 -3 -3 -10 -10 -11
-16 -9 -35 10 l-22 23 25 -13 c14 -7 30 -12 35 -10z m33 -33 c-2 -7 8 -23 22
-35 20 -18 21 -20 4 -12 -28 14 -47 38 -39 51 9 14 16 12 13 -4z"/>
<path d="M3057 3379 c7 -7 15 -10 18 -7 3 3 -2 9 -12 12 -14 6 -15 5 -6 -5z"/>
<path d="M3210 3379 c0 -5 5 -7 10 -4 6 3 10 8 10 11 0 2 -4 4 -10 4 -5 0 -10
-5 -10 -11z"/>
<path d="M1909 3363 c-13 -16 -12 -17 4 -4 9 7 17 15 17 17 0 8 -8 3 -21 -13z"/>
<path d="M1973 3365 c0 -8 4 -15 9 -15 4 0 8 4 8 9 0 6 -4 12 -8 15 -5 3 -9
-1 -9 -9z"/>
<path d="M3080 3360 c-12 -7 -10 -9 8 -7 12 0 22 5 22 9 0 11 -12 10 -30 -2z"/>
<path d="M1919 3348 c-6 -21 -5 -38 1 -38 5 0 8 9 7 20 -1 17 -5 26 -8 18z"/>
<path d="M1947 3339 c7 -7 15 -10 18 -7 3 3 -2 9 -12 12 -14 6 -15 5 -6 -5z"/>
<path d="M1995 3339 c-18 -8 -18 -9 3 -5 17 3 22 1 18 -10 -3 -8 -1 -14 4 -14
12 0 13 27 3 33 -5 3 -17 0 -28 -4z"/>
<path d="M3115 3339 c-4 -6 -5 -12 -2 -15 2 -3 7 2 10 11 7 17 1 20 -8 4z"/>
<path d="M3148 3331 c3 -9 1 -12 -6 -7 -8 5 -10 1 -5 -10 5 -13 3 -15 -7 -9
-9 5 -11 4 -6 -3 10 -16 9 -16 33 16 19 25 19 28 3 28 -11 0 -16 -6 -12 -15z"/>
<path d="M3080 3325 c-7 -9 -8 -15 -2 -15 5 0 12 7 16 15 3 8 4 15 2 15 -2 0
-9 -7 -16 -15z"/>
<path d="M3233 3325 c0 -8 4 -15 9 -15 4 0 8 4 8 9 0 6 -4 12 -8 15 -5 3 -9
-1 -9 -9z"/>
<path d="M1870 3321 c0 -6 4 -13 10 -16 6 -3 7 1 4 9 -7 18 -14 21 -14 7z"/>
<path d="M2043 3324 c4 -7 0 -17 -8 -24 -12 -10 -18 -10 -30 0 -9 7 -19 10
-22 6 -11 -11 -12 -36 -1 -36 6 0 8 7 4 15 -7 18 8 20 22 2 15 -18 -24 -43
-42 -28 -7 6 -16 8 -19 4 -4 -3 -7 -1 -7 5 0 5 5 12 12 14 8 3 7 6 -3 10 -10
4 -16 0 -16 -10 0 -23 17 -43 30 -35 6 4 8 0 4 -10 -4 -12 -2 -14 11 -10 14 6
15 4 5 -8 -6 -8 -11 -18 -11 -24 0 -5 -5 -11 -11 -13 -6 -2 -9 3 -6 10 7 18
-30 62 -44 53 -6 -3 -11 -12 -11 -18 0 -9 3 -8 8 1 7 9 13 8 27 -8 18 -20 18
-21 -1 -34 -23 -17 -32 -12 -14 9 7 8 8 15 2 15 -16 0 -23 -30 -12 -50 7 -13
7 -21 0 -25 -5 -3 -10 -12 -9 -18 0 -9 2 -8 6 1 2 6 10 9 15 6 6 -4 8 -2 4 4
-3 5 12 24 33 41 31 25 39 37 35 56 -4 25 13 31 28 10 5 -6 8 -5 8 3 0 7 4 11
9 8 5 -3 20 3 32 14 13 11 20 20 14 19 -21 -3 -29 2 -17 9 9 7 7 13 -9 28 -13
10 -19 14 -16 8z m14 -28 c-3 -7 0 -19 6 -25 9 -9 8 -10 -7 -5 -12 5 -17 4
-13 -3 3 -5 0 -10 -8 -10 -19 0 -19 7 1 35 17 25 29 29 21 8z m-119 -130 c-7
-8 -15 -12 -17 -11 -5 6 10 25 20 25 5 0 4 -6 -3 -14z"/>
<path d="M3290 3319 c0 -5 5 -7 10 -4 6 3 10 8 10 11 0 2 -4 4 -10 4 -5 0 -10
-5 -10 -11z"/>
<path d="M3156 3293 c-6 -14 -5 -15 5 -6 7 7 10 15 7 18 -3 3 -9 -2 -12 -12z"/>
<path d="M3316 3287 c3 -10 9 -15 12 -12 3 3 0 11 -7 18 -10 9 -11 8 -5 -6z"/>
<path d="M1896 3277 c3 -10 9 -15 12 -12 3 3 0 11 -7 18 -10 9 -11 8 -5 -6z"/>
<path d="M3251 3251 c-8 -5 -9 -11 -3 -15 5 -3 12 1 16 9 6 17 6 18 -13 6z"/>
<path d="M3349 3243 c-13 -16 -12 -17 4 -4 9 7 17 15 17 17 0 8 -8 3 -21 -13z"/>
<path d="M1850 3240 c0 -5 5 -10 10 -10 6 0 10 5 10 10 0 6 -4 10 -10 10 -5 0
-10 -4 -10 -10z"/>
<path d="M3279 3238 c-5 -18 -6 -38 -1 -34 7 8 12 36 6 36 -2 0 -4 -1 -5 -2z"/>
<path d="M1755 3220 c-3 -5 -1 -10 4 -10 6 0 11 5 11 10 0 6 -2 10 -4 10 -3 0
-8 -4 -11 -10z"/>
<path d="M3370 3220 c0 -5 5 -10 11 -10 5 0 7 5 4 10 -3 6 -8 10 -11 10 -2 0
-4 -4 -4 -10z"/>
<path d="M1822 3204 c10 -10 20 -15 24 -12 3 4 -5 12 -18 18 -22 12 -22 12 -6
-6z"/>
<path d="M3231 3212 c-1 -8 -6 -10 -13 -6 -10 5 -10 4 -1 -6 15 -16 28 -8 20
12 -4 11 -6 11 -6 0z"/>
<path d="M1750 3196 c0 -2 8 -10 18 -17 15 -13 16 -12 3 4 -13 16 -21 21 -21
13z"/>
<path d="M3300 3170 c0 -5 0 -13 1 -16 0 -4 -5 -11 -13 -16 -11 -8 -10 -9 1
-6 13 4 28 48 16 48 -3 0 -5 -4 -5 -10z"/>
<path d="M1798 3163 c7 -3 16 -2 19 1 4 3 -2 6 -13 5 -11 0 -14 -3 -6 -6z"/>
<path d="M1743 3137 c-3 -6 -1 -7 5 -3 5 3 12 1 14 -6 3 -8 6 -7 10 3 7 17
-19 22 -29 6z"/>
<path d="M3360 3135 c-7 -8 -9 -15 -4 -15 5 0 2 -5 -6 -11 -13 -9 -13 -10 0
-6 8 2 15 8 15 13 0 5 4 15 8 22 11 17 2 15 -13 -3z"/>
<path d="M3455 3140 c-3 -5 -1 -10 4 -10 6 0 11 5 11 10 0 6 -2 10 -4 10 -3 0
-8 -4 -11 -10z"/>
<path d="M1653 3125 c0 -8 4 -12 9 -9 5 3 6 10 3 15 -9 13 -12 11 -12 -6z"/>
<path d="M1716 3127 c3 -10 9 -15 12 -12 3 3 0 11 -7 18 -10 9 -11 8 -5 -6z"/>
<path d="M3385 3119 c-4 -6 -5 -12 -2 -15 2 -3 7 2 10 11 7 17 1 20 -8 4z"/>
<path d="M1676 3101 c-3 -4 4 -17 17 -27 22 -19 22 -19 4 2 -9 11 -14 24 -10
27 3 4 4 7 0 7 -3 0 -8 -4 -11 -9z"/>
<path d="M1787 3096 c-4 -10 -1 -13 9 -9 15 6 19 23 5 23 -5 0 -11 -7 -14 -14z"/>
<path d="M3313 3095 c-3 -9 -3 -18 -1 -21 3 -3 8 4 11 16 6 23 -1 27 -10 5z"/>
<path d="M1755 3090 c6 -10 4 -12 -11 -6 -15 6 -17 5 -6 -5 9 -9 15 -10 23 -2
8 8 7 13 -2 18 -8 6 -10 4 -4 -5z"/>
<path d="M3416 3087 c3 -10 9 -15 12 -12 3 3 0 11 -7 18 -10 9 -11 8 -5 -6z"/>
<path d="M3330 3075 c0 -8 2 -15 4 -15 2 0 6 7 10 15 3 8 1 15 -4 15 -6 0 -10
-7 -10 -15z"/>
<path d="M3390 3076 c14 -18 13 -19 -5 -12 -16 6 -18 5 -7 -5 8 -9 15 -10 22
-3 8 8 5 15 -7 25 -17 13 -17 13 -3 -5z"/>
<path d="M1616 3058 c3 -5 10 -6 15 -3 13 9 11 12 -6 12 -8 0 -12 -4 -9 -9z"/>
<path d="M1758 3049 c-12 -13 -14 -19 -5 -19 7 0 18 9 25 20 15 25 3 25 -20
-1z"/>
<path d="M3275 3039 c1 -11 8 -25 15 -32 12 -10 12 -9 1 6 -13 16 -11 17 23
13 34 -5 35 -4 21 11 -25 24 -62 25 -60 2z m35 1 c0 -5 -2 -10 -4 -10 -3 0 -8
5 -11 10 -3 6 -1 10 4 10 6 0 11 -4 11 -10z"/>
<path d="M1712 3031 c7 -9 13 -18 15 -20 1 -2 1 5 0 16 0 11 -7 20 -14 20 -10
0 -10 -4 -1 -16z"/>
<path d="M3348 3043 c7 -3 16 -2 19 1 4 3 -2 6 -13 5 -11 0 -14 -3 -6 -6z"/>
<path d="M3456 3042 c-3 -5 1 -9 9 -9 8 0 12 4 9 9 -3 4 -7 8 -9 8 -2 0 -6 -4
-9 -8z"/>
<path d="M3535 3040 c-3 -5 -1 -10 4 -10 6 0 11 5 11 10 0 6 -2 10 -4 10 -3 0
-8 -4 -11 -10z"/>
<path d="M3397 3029 c7 -7 15 -10 18 -7 3 3 -2 9 -12 12 -14 6 -15 5 -6 -5z"/>
<path d="M1685 3010 c-16 -7 -17 -9 -3 -9 9 -1 20 4 23 9 7 11 7 11 -20 0z"/>
<path d="M3450 3016 c0 -2 8 -10 18 -17 15 -13 16 -12 3 4 -13 16 -21 21 -21
13z"/>
<path d="M3396 2995 c-9 -26 -7 -32 5 -12 6 10 9 21 6 23 -2 3 -7 -2 -11 -11z"/>
<path d="M1666 2978 c3 -5 10 -6 15 -3 13 9 11 12 -6 12 -8 0 -12 -4 -9 -9z"/>
<path d="M1742 2970 c7 -11 17 -20 21 -20 5 0 1 -7 -7 -16 -9 -8 -13 -20 -10
-26 4 -6 1 -9 -7 -6 -8 3 -16 13 -17 23 -3 10 0 15 7 11 6 -4 11 -2 11 3 0 19
-22 12 -27 -9 -3 -11 -9 -20 -14 -20 -5 0 -9 -5 -9 -11 0 -8 4 -9 13 0 8 6 17
8 20 4 11 -10 8 -33 -4 -33 -5 0 -7 4 -4 10 3 6 -1 7 -9 4 -13 -5 -12 -9 7
-24 12 -10 19 -21 15 -25 -3 -4 -16 3 -28 15 -11 11 -25 18 -30 15 -4 -3 -11
0 -13 5 -3 6 -4 5 -3 -2 2 -7 8 -14 14 -14 7 -1 17 -2 24 -3 6 0 8 -4 4 -8 -3
-4 3 -12 15 -19 14 -7 18 -14 11 -18 -6 -4 -20 2 -32 14 -11 11 -20 16 -20 12
0 -4 5 -13 12 -20 9 -9 9 -15 0 -24 -7 -7 -12 -16 -12 -22 0 -5 7 -1 15 10 8
10 15 14 15 7 0 -6 -8 -20 -17 -29 -17 -17 -17 -18 1 -11 13 5 17 3 13 -7 -3
-7 -1 -18 5 -24 8 -8 5 -11 -11 -9 -13 1 -20 6 -17 14 3 7 1 13 -3 13 -5 0
-11 -7 -15 -15 -5 -13 5 -20 27 -16 10 2 9 -17 -2 -24 -5 -3 -12 -1 -16 5 -3
5 -11 10 -18 10 -6 0 -3 -6 8 -13 10 -8 15 -19 11 -26 -4 -6 0 -18 8 -27 9 -9
16 -11 16 -4 0 6 4 9 9 6 5 -4 8 2 6 11 -1 10 -8 17 -15 15 -6 -1 -10 3 -8 10
3 7 11 13 19 13 9 0 14 11 14 30 -1 17 4 33 10 37 6 5 3 8 -7 8 -10 0 -18 4
-18 9 0 5 8 8 17 7 11 0 18 6 18 19 0 11 3 25 7 30 4 6 3 17 -3 25 -11 18 -12
30 -1 29 19 -3 32 2 32 12 0 8 -5 8 -15 -1 -9 -7 -15 -8 -15 -2 0 5 12 17 26
27 14 9 23 19 20 22 -3 4 -1 12 6 20 8 11 7 12 -5 7 -10 -3 -21 2 -29 15 -7
12 -16 21 -20 21 -5 0 -3 -9 4 -20z m33 -50 c-3 -5 -11 -10 -16 -10 -6 0 -7 5
-4 10 3 6 11 10 16 10 6 0 7 -4 4 -10z m-48 -137 c0 -7 -4 -13 -8 -13 -4 0 -9
6 -12 13 -3 8 0 14 7 14 7 0 13 -6 13 -14z m-27 -139 c0 -8 -19 -13 -24 -6 -3
5 1 9 9 9 8 0 15 -2 15 -3z"/>
<path d="M1690 2960 c0 -5 5 -10 10 -10 6 0 10 5 10 10 0 6 -4 10 -10 10 -5 0
-10 -4 -10 -10z"/>
<path d="M3506 2958 c3 -5 10 -6 15 -3 13 9 11 12 -6 12 -8 0 -12 -4 -9 -9z"/>
<path d="M1670 2955 c0 -5 5 -17 10 -25 5 -8 10 -10 10 -5 0 6 -5 17 -10 25
-5 8 -10 11 -10 5z"/>
<path d="M1630 2945 c0 -5 5 -17 10 -25 5 -8 10 -10 10 -5 0 6 -5 17 -10 25
-5 8 -10 11 -10 5z"/>
<path d="M3434 2929 c-3 -6 -2 -15 3 -20 5 -5 9 -1 9 11 0 23 -2 24 -12 9z"/>
<path d="M3460 2919 c0 -5 5 -7 10 -4 6 3 10 8 10 11 0 2 -4 4 -10 4 -5 0 -10
-5 -10 -11z"/>
<path d="M3506 2898 c3 -5 10 -6 15 -3 13 9 11 12 -6 12 -8 0 -12 -4 -9 -9z"/>
<path d="M1606 2882 c-3 -5 1 -9 9 -9 8 0 12 4 9 9 -3 4 -7 8 -9 8 -2 0 -6 -4
-9 -8z"/>
<path d="M3432 2869 c-15 -24 -2 -47 18 -34 8 5 8 11 2 17 -6 6 -8 17 -5 24 8
21 0 17 -15 -7z m13 -19 c3 -5 1 -10 -4 -10 -6 0 -11 5 -11 10 0 6 2 10 4 10
3 0 8 -4 11 -10z"/>
<path d="M1530 2860 c0 -5 5 -10 11 -10 5 0 7 5 4 10 -3 6 -8 10 -11 10 -2 0
-4 -4 -4 -10z"/>
<path d="M3468 2858 c5 -5 16 -8 23 -6 8 3 3 7 -10 11 -17 4 -21 3 -13 -5z"/>
<path d="M1574 2840 c0 -13 4 -16 10 -10 7 7 7 13 0 20 -6 6 -10 3 -10 -10z"/>
<path d="M1641 2834 c0 -11 3 -14 6 -6 3 7 2 16 -1 19 -3 4 -6 -2 -5 -13z"/>
<path d="M3555 2841 c-3 -5 -2 -12 3 -15 5 -3 9 1 9 9 0 17 -3 19 -12 6z"/>
<path d="M3516 2827 c3 -10 9 -15 12 -12 3 3 0 11 -7 18 -10 9 -11 8 -5 -6z"/>
<path d="M1650 2800 c0 -5 5 -10 10 -10 6 0 10 5 10 10 0 6 -4 10 -10 10 -5 0
-10 -4 -10 -10z"/>
<path d="M3539 2793 c-13 -16 -12 -17 4 -4 9 7 17 15 17 17 0 8 -8 3 -21 -13z"/>
<path d="M1593 2774 c0 -7 6 -15 13 -18 9 -3 11 1 7 11 -5 12 -3 14 8 8 8 -5
11 -4 6 0 -13 14 -34 14 -34 -1z"/>
<path d="M3495 2780 c-7 -11 22 -26 32 -16 4 3 -1 6 -11 6 -9 0 -14 5 -11 10
3 6 4 10 1 10 -3 0 -8 -5 -11 -10z"/>
<path d="M1646 2761 c4 -16 3 -21 -5 -17 -6 4 -11 2 -11 -3 0 -6 4 -11 9 -11
17 0 22 19 11 37 -9 15 -10 14 -4 -6z"/>
<path d="M1546 2760 c5 -8 9 -18 9 -22 0 -3 3 -9 7 -13 3 -4 5 0 4 9 -1 9 -8
22 -16 29 -10 10 -11 9 -4 -3z"/>
<path d="M3476 2757 c3 -10 9 -15 12 -12 3 3 0 11 -7 18 -10 9 -11 8 -5 -6z"/>
<path d="M1515 2751 c-3 -5 -2 -12 3 -15 5 -3 9 1 9 9 0 17 -3 19 -12 6z"/>
<path d="M1592 2734 c10 -10 20 -16 22 -13 3 3 -5 11 -17 18 -21 13 -21 12 -5
-5z"/>
<path d="M3495 2700 c-3 -5 0 -12 6 -16 8 -5 9 -3 4 6 -6 10 -4 12 8 7 9 -3
18 -3 21 1 3 4 -4 8 -14 9 -11 1 -22 -2 -25 -7z"/>
<path d="M3470 2690 c0 -21 37 -43 46 -28 4 6 3 8 -4 4 -6 -3 -18 4 -26 16
-11 15 -16 18 -16 8z"/>
<path d="M1539 2673 c-13 -16 -12 -17 4 -4 16 13 21 21 13 21 -2 0 -10 -8 -17
-17z"/>
<path d="M1596 2678 c3 -4 11 -5 19 -1 21 7 19 12 -4 10 -11 0 -18 -5 -15 -9z"/>
<path d="M3555 2683 c3 -3 0 -11 -5 -18 -7 -8 -5 -12 4 -12 14 0 16 22 3 32
-4 3 -5 2 -2 -2z"/>
<path d="M3675 2680 c3 -5 8 -10 11 -10 2 0 4 5 4 10 0 6 -5 10 -11 10 -5 0
-7 -4 -4 -10z"/>
<path d="M1590 2652 c11 -23 37 -25 32 -2 -2 8 3 10 13 7 8 -4 15 -2 15 4 0 6
-8 9 -17 7 -10 -2 -17 -10 -15 -16 3 -17 -9 -15 -25 6 -13 15 -13 15 -3 -6z"/>
<path d="M3511 2631 c-9 -17 -8 -18 11 -13 13 3 17 7 10 10 -7 2 -10 8 -6 13
3 5 3 9 0 9 -3 0 -10 -9 -15 -19z"/>
<path d="M1635 2629 c-4 -6 -5 -12 -2 -15 2 -3 7 2 10 11 7 17 1 20 -8 4z"/>
<path d="M1496 2618 c3 -5 10 -6 15 -3 13 9 11 12 -6 12 -8 0 -12 -4 -9 -9z"/>
<path d="M3635 2621 c-3 -5 -2 -12 3 -15 5 -3 9 1 9 9 0 17 -3 19 -12 6z"/>
<path d="M1645 2600 c-7 -21 -27 -29 -22 -9 1 6 -5 14 -13 16 -12 4 -12 3 -2
-5 8 -5 13 -13 12 -18 -4 -20 18 -13 34 11 9 14 12 25 7 25 -5 0 -13 -9 -16
-20z"/>
<path d="M1553 2592 c-8 -14 -8 -19 1 -19 7 0 13 9 13 19 1 10 1 18 0 18 -1 0
-7 -8 -14 -18z"/>
<path d="M3596 2602 c-3 -5 1 -9 9 -9 8 0 12 4 9 9 -3 4 -7 8 -9 8 -2 0 -6 -4
-9 -8z"/>
<path d="M1653 2575 c-12 -14 -18 -25 -13 -25 5 0 12 5 15 10 3 6 11 10 17 10
6 0 3 -9 -7 -20 -11 -12 -20 -26 -21 -33 -2 -7 -6 -23 -9 -37 l-6 -25 12 25
c9 21 14 37 18 60 1 3 5 -1 10 -9 7 -10 12 -11 27 -1 13 7 14 10 3 7 -9 -3
-16 1 -16 8 0 7 7 11 14 8 17 -7 15 27 -2 39 -15 11 -18 10 -42 -17z m41 -1
c5 -14 4 -15 -9 -4 -17 14 -19 20 -6 20 5 0 12 -7 15 -16z"/>
<path d="M1495 2580 c3 -5 8 -10 11 -10 2 0 4 5 4 10 0 6 -5 10 -11 10 -5 0
-7 -4 -4 -10z"/>
<path d="M1590 2571 c8 -6 11 -11 5 -11 -5 0 -3 -6 5 -13 8 -7 17 -21 18 -31
3 -18 2 -19 -15 -5 -16 13 -17 13 -4 -3 7 -10 17 -15 22 -12 12 7 5 44 -10 53
-7 5 -12 12 -11 17 1 5 -4 10 -12 12 -9 2 -8 0 2 -7z"/>
<path d="M3510 2571 c0 -6 4 -13 10 -16 6 -3 7 1 4 9 -7 18 -14 21 -14 7z"/>
<path d="M3573 2567 c0 -8 6 -14 14 -14 9 0 10 4 2 14 -6 7 -12 13 -14 13 -1
0 -2 -6 -2 -13z"/>
<path d="M3573 2525 c0 -8 4 -15 9 -15 4 0 8 4 8 9 0 6 -4 12 -8 15 -5 3 -9
-1 -9 -9z"/>
<path d="M3510 2519 c0 -5 5 -7 10 -4 6 3 10 8 10 11 0 2 -4 4 -10 4 -5 0 -10
-5 -10 -11z"/>
<path d="M1695 2511 c-3 -5 -2 -12 3 -15 5 -3 9 1 9 9 0 17 -3 19 -12 6z"/>
<path d="M3488 2502 c8 -5 14 -13 15 -18 1 -5 20 -9 42 -9 22 0 47 -4 55 -10
13 -7 13 -6 2 7 -8 10 -26 14 -57 13 -26 -2 -43 1 -42 7 1 6 -5 13 -13 15 -12
4 -12 3 -2 -5z"/>
<path d="M1600 2470 c6 -11 13 -20 16 -20 2 0 0 9 -6 20 -6 11 -13 20 -16 20
-2 0 0 -9 6 -20z"/>
<path d="M3465 2459 c-4 -6 -4 -13 -1 -16 3 -4 6 -1 6 6 0 7 5 9 10 6 6 -3 10
-1 10 4 0 14 -17 14 -25 0z"/>
<path d="M3513 2452 c-8 -5 -4 -11 11 -18 17 -8 23 -8 23 2 0 7 -4 11 -8 8 -4
-2 -9 0 -11 6 -1 5 -8 6 -15 2z"/>
<path d="M3480 2431 c0 -7 -4 -9 -10 -6 -5 3 -10 1 -10 -4 0 -6 4 -11 9 -11
13 0 25 20 17 27 -3 4 -6 1 -6 -6z"/>
<path d="M1586 2418 c3 -5 0 -16 -8 -25 -9 -12 -9 -15 -1 -9 22 12 34 43 18
43 -8 0 -12 -4 -9 -9z"/>
<path d="M1633 2419 c9 -6 14 -15 11 -21 -4 -7 -2 -8 4 -4 16 9 3 36 -17 36
-14 -1 -14 -2 2 -11z"/>
<path d="M3610 2420 c0 -5 5 -10 11 -10 5 0 7 5 4 10 -3 6 -8 10 -11 10 -2 0
-4 -4 -4 -10z"/>
<path d="M1616 2395 c4 -8 8 -15 10 -15 2 0 4 7 4 15 0 8 -4 15 -10 15 -5 0
-7 -7 -4 -15z"/>
<path d="M3536 2393 c-6 -14 -5 -15 5 -6 7 7 10 15 7 18 -3 3 -9 -2 -12 -12z"/>
<path d="M1596 2373 c-6 -14 -5 -15 5 -6 7 7 10 15 7 18 -3 3 -9 -2 -12 -12z"/>
<path d="M1686 2381 c-4 -5 -1 -11 6 -13 14 -5 22 -48 8 -48 -6 0 -10 5 -10
11 0 5 -5 7 -11 3 -8 -4 -3 -11 12 -20 13 -7 27 -10 31 -8 4 2 6 -5 5 -16 -2
-25 -2 -25 -28 1 -11 11 -26 18 -32 16 -17 -5 -15 -53 2 -49 9 2 11 -3 7 -13
-3 -9 -6 -19 -6 -21 0 -3 -5 -2 -12 2 -7 5 -8 3 -3 -6 6 -10 11 -9 22 6 14 20
12 40 -5 37 -6 -2 -10 6 -9 17 1 22 5 24 27 10 8 -5 11 -10 5 -10 -5 0 -2 -5
8 -11 19 -11 41 -3 32 12 -4 5 -1 9 6 9 8 0 8 4 -1 15 -7 8 -9 15 -5 15 4 0 0
11 -9 25 -12 18 -13 25 -4 25 9 0 8 3 -2 10 -19 12 -27 12 -34 1z"/>
<path d="M3459 2366 c-17 -18 -27 -22 -36 -14 -9 7 -13 7 -13 -1 0 -6 -6 -10
-12 -8 -7 1 -12 -6 -10 -15 2 -10 -3 -18 -9 -18 -7 0 -9 -3 -6 -7 4 -3 1 -13
-5 -22 -10 -13 -10 -14 2 -3 17 15 40 16 40 1 0 -5 -4 -8 -9 -4 -16 9 -21 -11
-7 -30 15 -20 31 -14 46 18 10 22 10 22 -6 0 -20 -28 -39 -30 -24 -3 8 14 8
26 0 41 -7 11 -9 23 -7 26 3 2 10 -5 17 -16 11 -22 30 -28 30 -10 0 5 -4 8 -8
5 -4 -2 -13 4 -20 15 -14 22 -5 24 22 4 11 -8 25 -15 30 -15 6 1 0 7 -12 14
l-24 13 32 26 c17 15 27 27 22 27 -6 0 -20 -11 -33 -24z"/>
<path d="M3615 2380 c-3 -5 -1 -10 4 -10 6 0 11 5 11 10 0 6 -2 10 -4 10 -3 0
-8 -4 -11 -10z"/>
<path d="M1559 2353 c-13 -16 -12 -17 4 -4 9 7 17 15 17 17 0 8 -8 3 -21 -13z"/>
<path d="M3480 2355 c-19 -22 -8 -25 13 -3 9 10 13 18 8 18 -5 0 -14 -7 -21
-15z"/>
<path d="M3495 2339 c-4 -6 -5 -12 -2 -15 2 -3 7 2 10 11 7 17 1 20 -8 4z"/>
<path d="M3521 2336 c-9 -11 -9 -16 1 -22 7 -4 10 -4 6 1 -4 4 -3 14 3 22 6 7
9 13 6 13 -2 0 -10 -6 -16 -14z"/>
<path d="M1555 2321 c-3 -5 -2 -12 3 -15 5 -3 9 1 9 9 0 17 -3 19 -12 6z"/>
<path d="M3586 2318 c3 -5 10 -6 15 -3 13 9 11 12 -6 12 -8 0 -12 -4 -9 -9z"/>
<path d="M1627 2289 c4 -13 8 -18 11 -10 2 7 -1 18 -6 23 -8 8 -9 4 -5 -13z"/>
<path d="M3531 2287 c-8 -10 -7 -14 2 -14 8 0 14 6 14 14 0 7 -1 13 -2 13 -2
0 -8 -6 -14 -13z"/>
<path d="M1550 2280 c0 -5 5 -10 11 -10 5 0 7 5 4 10 -3 6 -8 10 -11 10 -2 0
-4 -4 -4 -10z"/>
<path d="M3460 2286 c0 -2 7 -6 15 -10 8 -3 15 -1 15 4 0 6 -7 10 -15 10 -8 0
-15 -2 -15 -4z"/>
<path d="M3457 2263 c-10 -9 -9 -41 2 -47 4 -3 6 6 3 21 -4 19 -2 24 8 18 9
-5 11 -4 6 3 -8 14 -10 14 -19 5z"/>
<path d="M1537 2235 c-4 -8 -3 -16 1 -19 4 -3 9 4 9 15 2 23 -3 25 -10 4z"/>
<path d="M1696 2234 c-4 -9 -4 -19 -1 -22 2 -3 7 3 11 12 4 9 4 19 1 22 -2 3
-7 -3 -11 -12z"/>
<path d="M3526 2238 c3 -5 10 -6 15 -3 13 9 11 12 -6 12 -8 0 -12 -4 -9 -9z"/>
<path d="M3427 2223 c-4 -3 -7 -15 -7 -26 0 -17 -2 -18 -17 -6 -10 7 -15 9
-10 4 4 -4 0 -19 -9 -33 -8 -13 -13 -26 -10 -29 3 -3 8 2 12 11 3 9 10 13 15
10 5 -3 6 2 3 11 -4 10 -2 15 6 13 7 -2 16 9 21 25 8 28 7 32 -4 20z"/>
<path d="M1755 2210 c-11 -4 -26 -5 -32 -3 -7 3 -13 -2 -13 -11 0 -9 7 -19 15
-22 8 -4 13 -10 10 -14 -3 -4 2 -11 10 -14 13 -4 14 -2 5 14 -6 11 -15 20 -20
20 -6 0 -10 5 -10 10 0 7 6 7 19 0 16 -8 22 -6 30 7 14 23 14 7 1 -17 -8 -15
-7 -18 3 -15 14 6 20 42 9 49 -4 2 -16 0 -27 -4z"/>
<path d="M1636 2195 c-9 -26 -7 -32 5 -12 6 10 9 21 6 23 -2 3 -7 -2 -11 -11z"/>
<path d="M1595 2191 c-3 -5 -2 -12 3 -15 5 -3 9 1 9 9 0 17 -3 19 -12 6z"/>
<path d="M1676 2183 c-6 -14 -5 -15 5 -6 7 7 10 15 7 18 -3 3 -9 -2 -12 -12z"/>
<path d="M3472 2181 c2 -19 -4 -24 -13 -11 -8 12 -10 12 -7 1 2 -8 12 -15 22
-17 10 -1 15 0 12 3 -3 4 -1 11 4 18 7 8 5 12 -5 12 -7 0 -14 -3 -13 -6z"/>
<path d="M3530 2180 c0 -5 5 -10 11 -10 5 0 7 5 4 10 -3 6 -8 10 -11 10 -2 0
-4 -4 -4 -10z"/>
<path d="M1690 2162 c0 -5 7 -9 15 -9 8 0 12 4 9 9 -3 4 -9 8 -15 8 -5 0 -9
-4 -9 -8z"/>
<path d="M1666 2145 c-4 -11 -2 -14 6 -9 7 5 9 2 6 -8 -4 -8 0 -15 7 -15 11 0
11 5 3 21 -15 29 -15 29 -22 11z"/>
<path d="M3535 2151 c-3 -5 -2 -12 3 -15 5 -3 9 1 9 9 0 17 -3 19 -12 6z"/>
<path d="M3414 2139 c-3 -6 -3 -13 0 -16 3 -4 6 -1 6 5 0 6 11 9 27 6 15 -3
25 -3 22 1 -12 11 -49 14 -55 4z"/>
<path d="M3391 2114 c0 -11 3 -14 6 -6 3 7 2 16 -1 19 -3 4 -6 -2 -5 -13z"/>
<path d="M1713 2103 c4 -3 1 -13 -6 -22 -11 -14 -10 -14 6 -2 20 15 22 31 5
31 -6 0 -8 -3 -5 -7z"/>
<path d="M1743 2086 c0 -7 6 -13 14 -13 7 0 13 4 13 8 0 4 -6 9 -13 12 -8 3
-14 0 -14 -7z"/>
<path d="M3410 2080 c0 -5 5 -10 10 -10 6 0 10 5 10 10 0 6 -4 10 -10 10 -5 0
-10 -4 -10 -10z"/>
<path d="M1616 2058 c3 -5 10 -6 15 -3 13 9 11 12 -6 12 -8 0 -12 -4 -9 -9z"/>
<path d="M3255 2060 c3 -5 8 -10 11 -10 2 0 4 5 4 10 0 6 -5 10 -11 10 -5 0
-7 -4 -4 -10z"/>
<path d="M3515 2061 c-3 -5 -2 -12 3 -15 5 -3 9 1 9 9 0 17 -3 19 -12 6z"/>
<path d="M3371 2047 c2 -1 13 -9 24 -17 19 -14 19 -14 6 3 -7 9 -18 17 -24 17
-6 0 -8 -1 -6 -3z"/>
<path d="M1675 2031 c-3 -5 -2 -12 3 -15 5 -3 9 1 9 9 0 17 -3 19 -12 6z"/>
<path d="M1746 2024 c-6 -15 -4 -15 11 -3 10 7 20 15 22 16 2 2 -3 3 -11 3 -9
0 -19 -7 -22 -16z"/>
<path d="M3312 2024 c-7 -8 -8 -14 -3 -14 10 0 25 19 20 25 -2 1 -10 -3 -17
-11z"/>
<path d="M3426 2018 c3 -5 10 -6 15 -3 13 9 11 12 -6 12 -8 0 -12 -4 -9 -9z"/>
<path d="M3375 2010 c-4 -6 -11 -8 -16 -5 -5 4 -9 1 -9 -4 0 -16 16 -13 30 4
7 8 10 15 7 15 -3 0 -9 -5 -12 -10z"/>
<path d="M1716 1993 c-6 -14 -5 -15 5 -6 7 7 10 15 7 18 -3 3 -9 -2 -12 -12z"/>
<path d="M1810 2000 c-8 -5 -10 -10 -5 -10 6 0 17 5 25 10 8 5 11 10 5 10 -5
0 -17 -5 -25 -10z"/>
<path d="M3391 1987 c-13 -21 -12 -21 5 -5 10 10 16 20 13 22 -3 3 -11 -5 -18
-17z"/>
<path d="M3440 2000 c-9 -6 -10 -10 -3 -10 6 0 15 5 18 10 8 12 4 12 -15 0z"/>
<path d="M1755 1979 c-3 -4 2 -6 10 -5 21 3 28 13 10 13 -9 0 -18 -4 -20 -8z"/>
<path d="M3290 1983 c5 -2 8 -9 5 -13 -3 -5 -1 -11 4 -14 5 -4 8 2 7 11 -2 9
-8 18 -15 19 -6 1 -7 0 -1 -3z"/>
<path d="M3321 1964 c0 -11 3 -14 6 -6 3 7 2 16 -1 19 -3 4 -6 -2 -5 -13z"/>
<path d="M1793 1954 c0 -7 6 -10 14 -7 7 3 13 8 13 12 0 4 -6 8 -13 8 -8 0
-14 -6 -14 -13z"/>
<path d="M3349 1943 c-13 -16 -12 -17 4 -4 16 13 21 21 13 21 -2 0 -10 -8 -17
-17z"/>
<path d="M1760 1940 c-9 -6 -10 -10 -3 -10 6 0 15 5 18 10 8 12 4 12 -15 0z"/>
<path d="M1830 1941 c0 -10 29 -36 34 -30 1 2 -6 12 -16 22 -10 9 -18 13 -18
8z"/>
<path d="M3286 1924 c-19 -18 -21 -34 -4 -34 6 0 8 3 5 7 -4 3 0 15 10 25 20
22 11 24 -11 2z"/>
<path d="M3376 1918 c3 -5 10 -6 15 -3 13 9 11 12 -6 12 -8 0 -12 -4 -9 -9z"/>
<path d="M1826 1902 c-3 -5 1 -9 9 -9 8 0 12 4 9 9 -3 4 -7 8 -9 8 -2 0 -6 -4
-9 -8z"/>
<path d="M3145 1890 c-3 -5 -1 -18 4 -28 6 -11 7 -22 4 -26 -3 -3 -1 -6 5 -6
15 0 15 23 0 38 -6 6 -8 15 -4 19 4 4 11 1 16 -7 5 -8 12 -11 17 -7 4 5 1 12
-7 17 -19 12 -27 12 -35 0z"/>
<path d="M3220 1880 c-12 -7 -10 -9 7 -7 12 0 19 5 17 9 -6 10 -6 10 -24 -2z"/>
<path d="M1875 1870 c-3 -6 1 -7 9 -4 18 7 21 14 7 14 -6 0 -13 -4 -16 -10z"/>
<path d="M1842 1858 c-15 -15 -15 -28 0 -28 6 0 8 3 5 7 -4 3 -2 12 4 20 14
16 7 17 -9 1z"/>
<path d="M3310 1860 c0 -5 5 -10 11 -10 5 0 7 5 4 10 -3 6 -8 10 -11 10 -2 0
-4 -4 -4 -10z"/>
<path d="M3190 1851 c0 -6 4 -13 10 -16 6 -3 7 1 4 9 -7 18 -14 21 -14 7z"/>
<path d="M3237 1843 c3 -7 6 -13 8 -13 1 0 7 6 13 13 8 10 6 13 -7 13 -11 0
-17 -6 -14 -13z"/>
<path d="M1800 1840 c-9 -6 -10 -10 -3 -10 6 0 15 5 18 10 8 12 4 12 -15 0z"/>
<path d="M1920 1840 c-9 -6 -10 -10 -3 -10 6 0 15 5 18 10 8 12 4 12 -15 0z"/>
<path d="M3126 1821 c-4 -5 -2 -12 3 -15 5 -4 12 -2 15 3 4 5 2 12 -3 15 -5 4
-12 2 -15 -3z"/>
<path d="M3270 1820 c0 -5 5 -10 11 -10 5 0 7 5 4 10 -3 6 -8 10 -11 10 -2 0
-4 -4 -4 -10z"/>
<path d="M1937 1796 c-4 -10 -1 -13 8 -9 8 3 12 9 9 14 -7 12 -11 11 -17 -5z"/>
<path d="M3076 1795 c4 -8 8 -15 10 -15 2 0 4 7 4 15 0 8 -4 15 -10 15 -5 0
-7 -7 -4 -15z"/>
<path d="M3188 1803 c6 -2 18 -2 25 0 6 3 1 5 -13 5 -14 0 -19 -2 -12 -5z"/>
<path d="M3155 1791 c-3 -5 -2 -12 3 -15 5 -3 9 1 9 9 0 17 -3 19 -12 6z"/>
<path d="M1875 1780 c-3 -5 -1 -10 4 -10 6 0 11 5 11 10 0 6 -2 10 -4 10 -3 0
-8 -4 -11 -10z"/>
<path d="M1963 1778 c-6 -7 -10 -21 -10 -30 0 -23 12 -12 12 10 0 9 6 16 13
14 8 -1 11 2 7 8 -8 13 -10 13 -22 -2z"/>
<path d="M2005 1779 c-6 -8 -4 -10 5 -4 10 6 12 4 6 -11 -6 -15 -5 -17 5 -6 9
9 10 15 2 23 -8 8 -13 7 -18 -2z"/>
<path d="M3186 1782 c-3 -5 1 -9 9 -9 8 0 12 4 9 9 -3 4 -7 8 -9 8 -2 0 -6 -4
-9 -8z"/>
<path d="M2088 1773 c6 -2 10 -8 7 -13 -6 -10 34 -25 42 -16 4 3 -1 6 -9 6 -9
0 -18 7 -22 15 -3 8 -11 15 -18 14 -10 0 -10 -2 0 -6z"/>
<path d="M2227 1756 c-3 -7 -1 -19 4 -27 8 -12 12 -11 23 3 7 10 17 14 22 11
5 -4 3 -1 -3 7 -17 18 -40 21 -46 6z m27 -11 c-4 -8 -11 -12 -16 -9 -6 4 -5
10 3 15 19 12 19 11 13 -6z"/>
<path d="M3090 1760 c0 -5 5 -10 10 -10 6 0 10 5 10 10 0 6 -4 10 -10 10 -5 0
-10 -4 -10 -10z"/>
<path d="M1987 1747 c-3 -8 1 -14 8 -14 7 0 11 6 8 14 -3 7 -6 13 -8 13 -2 0
-5 -6 -8 -13z"/>
<path d="M3000 1756 c0 -2 7 -9 15 -16 9 -7 15 -8 15 -2 0 5 -7 12 -15 16 -8
3 -15 4 -15 2z"/>
<path d="M2034 1722 c0 -17 5 -29 13 -29 9 0 10 4 3 12 -6 7 -8 20 -4 29 3 9
2 16 -3 16 -5 0 -9 -13 -9 -28z"/>
<path d="M3055 1740 c-3 -6 1 -7 9 -4 18 7 21 14 7 14 -6 0 -13 -4 -16 -10z"/>
<path d="M3193 1735 c0 -8 4 -12 9 -9 5 3 6 10 3 15 -9 13 -12 11 -12 -6z"/>
<path d="M2765 1732 c-13 -9 -17 -32 -6 -32 5 0 11 9 14 20 6 22 6 22 -8 12z"/>
<path d="M2085 1720 c-16 -7 -17 -9 -3 -9 9 -1 20 4 23 9 7 11 7 11 -20 0z"/>
<path d="M2119 1713 c-13 -16 -12 -17 4 -4 9 7 17 15 17 17 0 8 -8 3 -21 -13z"/>
<path d="M2950 1721 c0 -5 5 -13 10 -16 6 -3 10 -2 10 4 0 5 -4 13 -10 16 -5
3 -10 2 -10 -4z"/>
<path d="M3000 1710 c6 -11 12 -20 14 -20 2 0 2 9 -1 20 -3 11 -9 20 -15 20
-5 0 -4 -9 2 -20z"/>
<path d="M3066 1722 c-3 -5 1 -9 9 -9 8 0 12 4 9 9 -3 4 -7 8 -9 8 -2 0 -6 -4
-9 -8z"/>
<path d="M2448 1706 c7 -14 6 -26 -5 -43 -8 -12 -13 -26 -11 -31 1 -5 10 6 19
24 14 29 15 36 2 51 -13 17 -14 17 -5 -1z"/>
<path d="M2135 1701 c-6 -11 13 -26 22 -17 4 3 1 6 -6 6 -7 0 -9 5 -6 10 3 6
4 10 1 10 -3 0 -7 -4 -11 -9z"/>
<path d="M3036 1702 c-3 -4 4 -9 15 -9 23 -2 25 3 4 10 -8 4 -16 3 -19 -1z"/>
<path d="M3130 1699 c0 -5 5 -7 10 -4 6 3 10 8 10 11 0 2 -4 4 -10 4 -5 0 -10
-5 -10 -11z"/>
<path d="M2890 1691 c0 -7 -4 -10 -8 -7 -4 2 -9 -5 -9 -16 -2 -21 -2 -21 14 1
8 12 12 25 9 28 -3 4 -6 1 -6 -6z"/>
<path d="M2955 1673 c-21 -20 -19 -29 3 -11 9 9 25 14 35 13 11 -2 16 -1 13 3
-13 12 -37 10 -51 -5z"/>
<path d="M1973 1665 c0 -8 4 -12 9 -9 5 3 6 10 3 15 -9 13 -12 11 -12 -6z"/>
<path d="M2120 1660 c-9 -6 -10 -10 -3 -10 6 0 15 5 18 10 8 12 4 12 -15 0z"/>
<path d="M2910 1660 c0 -5 5 -10 11 -10 5 0 7 5 4 10 -3 6 -8 10 -11 10 -2 0
-4 -4 -4 -10z"/>
<path d="M2715 1649 c-4 -6 -4 -13 -1 -16 3 -4 6 -1 6 6 0 9 5 9 21 0 16 -8
24 -8 33 2 8 9 8 10 -1 5 -7 -4 -21 -2 -32 4 -14 7 -22 7 -26 -1z"/>
<path d="M3113 1645 c0 -8 4 -12 9 -9 5 3 6 10 3 15 -9 13 -12 11 -12 -6z"/>
<path d="M2155 1640 c3 -5 8 -10 11 -10 2 0 4 5 4 10 0 6 -5 10 -11 10 -5 0
-7 -4 -4 -10z"/>
<path d="M2220 1640 c8 -5 20 -10 25 -10 6 0 3 5 -5 10 -8 5 -19 10 -25 10 -5
0 -3 -5 5 -10z"/>
<path d="M2267 1631 c-3 -13 -1 -18 9 -14 7 2 10 11 7 19 -7 19 -10 18 -16 -5z"/>
<path d="M2320 1630 c6 -11 13 -20 16 -20 2 0 0 9 -6 20 -6 11 -13 20 -16 20
-2 0 0 -9 6 -20z"/>
<path d="M2500 1635 c-10 -12 -9 -16 4 -21 9 -3 23 -3 32 0 13 5 14 9 4 21 -7
8 -16 15 -20 15 -4 0 -13 -7 -20 -15z m35 -5 c3 -5 -3 -10 -15 -10 -12 0 -18
5 -15 10 3 6 10 10 15 10 5 0 12 -4 15 -10z"/>
<path d="M2636 1635 c-9 -26 -7 -32 5 -12 6 10 9 21 6 23 -2 3 -7 -2 -11 -11z"/>
<path d="M2820 1639 c-12 -9 -12 -10 4 -5 10 4 25 1 32 -5 12 -10 13 -9 8 5
-7 18 -23 20 -44 5z"/>
<path d="M2190 1618 c0 -4 4 -8 9 -8 6 0 12 4 15 8 3 5 -1 9 -9 9 -8 0 -15 -4
-15 -9z"/>
<path d="M2649 1605 c-9 -17 -8 -18 3 -5 16 19 53 27 42 9 -4 -8 -3 -10 5 -5
16 11 4 25 -20 23 -11 -1 -25 -11 -30 -22z"/>
<path d="M2724 1618 c-5 -7 -3 -8 6 -3 9 5 11 1 6 -16 -3 -13 -3 -18 0 -11 5
10 11 9 27 -5 18 -15 17 -13 -3 15 -27 36 -26 36 -36 20z"/>
<path d="M2776 1621 c-3 -5 0 -14 8 -20 10 -9 15 -8 19 3 4 11 1 13 -10 9 -11
-4 -14 -2 -9 5 4 7 5 12 2 12 -3 0 -7 -4 -10 -9z"/>
<path d="M3053 1615 c0 -8 4 -12 9 -9 5 3 6 10 3 15 -9 13 -12 11 -12 -6z"/>
<path d="M2355 1610 c-3 -6 1 -7 9 -4 18 7 21 14 7 14 -6 0 -13 -4 -16 -10z"/>
<path d="M2591 1610 c0 -8 4 -22 9 -30 12 -18 12 -2 0 25 -6 13 -9 15 -9 5z"/>
<path d="M2095 1600 c-3 -5 -1 -10 4 -10 6 0 11 5 11 10 0 6 -2 10 -4 10 -3 0
-8 -4 -11 -10z"/>
<path d="M2410 1602 c0 -4 9 -8 20 -9 11 -1 20 2 20 5 0 4 -9 8 -20 9 -11 1
-20 -2 -20 -5z"/>
<path d="M2889 1597 c6 -8 7 -18 3 -22 -4 -5 -1 -5 6 -1 10 6 10 11 1 22 -6 8
-14 14 -16 14 -3 0 0 -6 6 -13z"/>
<path d="M2979 1608 c-5 -18 -6 -38 -1 -34 7 8 12 36 6 36 -2 0 -4 -1 -5 -2z"/>
<path d="M2216 1578 c3 -5 10 -6 15 -3 13 9 11 12 -6 12 -8 0 -12 -4 -9 -9z"/>
<path d="M2306 1578 c3 -5 10 -6 15 -3 13 9 11 12 -6 12 -8 0 -12 -4 -9 -9z"/>
<path d="M2348 1583 c6 -2 18 -2 25 0 6 3 1 5 -13 5 -14 0 -19 -2 -12 -5z"/>
<path d="M2393 1583 c4 -3 1 -13 -6 -22 -11 -14 -10 -14 5 -2 16 12 16 31 1
31 -4 0 -3 -3 0 -7z"/>
<path d="M2572 1578 c2 -8 -5 -13 -18 -12 -11 1 -21 -5 -21 -12 0 -9 4 -11 12
-4 7 5 14 8 17 5 3 -3 11 1 17 9 8 10 9 16 1 21 -6 4 -9 1 -8 -7z"/>
<path d="M2675 1580 c-16 -7 -17 -9 -3 -9 9 -1 20 4 23 9 7 11 7 11 -20 0z"/>
<path d="M2895 1551 c-3 -5 -2 -12 3 -15 5 -3 9 1 9 9 0 17 -3 19 -12 6z"/>
<path d="M2250 1539 c0 -5 5 -7 10 -4 6 3 10 8 10 11 0 2 -4 4 -10 4 -5 0 -10
-5 -10 -11z"/>
<path d="M2616 1518 c3 -5 10 -6 15 -3 13 9 11 12 -6 12 -8 0 -12 -4 -9 -9z"/>
<path d="M2661 1516 c-9 -11 -9 -16 1 -22 7 -4 10 -4 6 1 -4 4 -3 14 3 22 6 7
9 13 6 13 -2 0 -10 -6 -16 -14z"/>
<path d="M2373 1505 c0 -8 4 -12 9 -9 5 3 6 10 3 15 -9 13 -12 11 -12 -6z"/>
</g>
</svg>
